{
.appVersion = "3151";
.formatVersion = 3;
DisplayStrings = (
Tnonnonn
);
axes = (
{
name = Weight;
tag = wght;
}
);
date = "2023-09-04 16:21:44 +0000";
familyName = Bijsluiter;
fontMaster = (
{
axesValues = (
300
);
id = m01;
metricValues = (
{
over = 16;
pos = 750;
},
{
over = 16;
pos = 700;
},
{
over = 16;
pos = 550;
},
{
over = -16;
},
{
over = -16;
pos = -200;
}
);
name = Regular;
stemValues = (
65,
70
);
userData = {
GSCornerRadius = 15;
GSExtrudeAngle = 30;
GSExtrudeOffset = 15;
GSOffsetHorizontal = 30;
GSOffsetVertical = 20;
};
},
{
axesValues = (
700
);
iconName = Bold;
id = m002;
metricValues = (
{
over = 16;
pos = 750;
},
{
over = 16;
pos = 700;
},
{
over = 16;
pos = 550;
},
{
over = -16;
},
{
over = -16;
pos = -200;
}
);
name = Bold;
stemValues = (
115,
170
);
userData = {
GSCornerRadius = 15;
GSExtrudeAngle = 30;
GSExtrudeOffset = 15;
GSOffsetAutoStroke = 1;
GSOffsetHorizontal = 15;
GSOffsetVertical = 15;
};
}
);
glyphs = (
{
glyphname = A;
lastChange = "2023-11-05 21:00:06 +0000";
layers = (
{
layerId = m01;
shapes = (
{
closed = 1;
nodes = (
(84,0,l),
(139,145,l),
(464,145,l),
(517,0,l),
(590,0,l),
(339,700,l),
(273,700,l),
(10,0,l)
);
},
{
closed = 1;
nodes = (
(305,603,l),
(440,210,l),
(164,210,l)
);
}
);
width = 600;
},
{
associatedMasterId = m01;
layerId = "6A2AA525-7548-4F44-B8B0-E43C70B7019B";
name = "5. Sept. 23, 11:28";
shapes = (
{
closed = 1;
nodes = (
(51,0,l),
(104,142,l),
(500,142,l),
(551,0,l),
(572,0,l),
(320,701,l),
(293,701,l),
(29,0,l)
);
},
{
closed = 1;
nodes = (
(306,680,l),
(492,162,l),
(111,162,l)
);
}
);
width = 600;
},
{
associatedMasterId = m01;
layerId = "37C719F9-12C9-4D3A-AAE2-436CAA942075";
name = "5. Sept. 23, 11:30";
shapes = (
{
closed = 1;
nodes = (
(149,0,l),
(194,121,l),
(409,121,l),
(451,0,l),
(634,0,l),
(380,700,l),
(231,700,l),
(-34,0,l)
);
},
{
closed = 1;
nodes = (
(303,498,l),
(382,261,l),
(222,261,l)
);
}
);
width = 600;
},
{
layerId = m002;
shapes = (
{
closed = 1;
nodes = (
(144,0,l),
(199,125,l),
(424,125,l),
(477,0,l),
(650,0,l),
(399,700,l),
(233,700,l),
(-30,0,l)
);
},
{
closed = 1;
nodes = (
(315,483,l),
(400,240,l),
(224,240,l)
);
}
);
width = 620;
},
{
associatedMasterId = m002;
layerId = "8AED7E9B-5779-4892-B2B1-15457D5DEF9A";
name = "5. Sept. 23, 11:28";
shapes = (
{
closed = 1;
nodes = (
(51,0,l),
(104,142,l),
(500,142,l),
(551,0,l),
(572,0,l),
(320,701,l),
(293,701,l),
(29,0,l)
);
},
{
closed = 1;
nodes = (
(306,680,l),
(492,162,l),
(111,162,l)
);
}
);
width = 600;
},
{
associatedMasterId = m002;
layerId = "20A79553-279B-4B60-956C-C8CD3FBACCA8";
name = "5. Sept. 23, 11:30";
shapes = (
{
closed = 1;
nodes = (
(149,0,l),
(194,121,l),
(409,121,l),
(451,0,l),
(634,0,l),
(380,700,l),
(231,700,l),
(-34,0,l)
);
},
{
closed = 1;
nodes = (
(303,498,l),
(382,261,l),
(222,261,l)
);
}
);
width = 600;
}
);
unicode = 65;
},
{
glyphname = AE;
lastChange = "2023-11-05 21:00:06 +0000";
layers = (
{
layerId = m01;
shapes = (
{
closed = 1;
nodes = (
(133,0,l),
(198,140,l),
(470,140,l),
(470,0,l),
(844,0,l),
(844,65,l),
(540,65,l),
(540,327,l),
(844,327,l),
(844,392,l),
(540,392,l),
(540,635,l),
(844,635,l),
(844,700,l),
(378,700,l),
(56,0,l)
);
},
{
closed = 1;
nodes = (
(424,635,l),
(470,635,l),
(470,205,l),
(230,205,l)
);
}
);
width = 889;
},
{
layerId = m002;
shapes = (
{
closed = 1;
nodes = (
(133,0,l),
(198,140,l),
(470,140,l),
(470,0,l),
(844,0,l),
(844,65,l),
(540,65,l),
(540,327,l),
(844,327,l),
(844,392,l),
(540,392,l),
(540,635,l),
(844,635,l),
(844,700,l),
(378,700,l),
(56,0,l)
);
},
{
closed = 1;
nodes = (
(424,635,l),
(470,635,l),
(470,205,l),
(230,205,l)
);
}
);
width = 889;
}
);
unicode = 198;
},
{
glyphname = B;
lastChange = "2023-11-05 21:00:06 +0000";
layers = (
{
layerId = m01;
shapes = (
{
closed = 1;
nodes = (
(333,0,ls),
(459,0,o),
(529,75,o),
(529,209,cs),
(529,286,o),
(495,341,o),
(434,363,c),
(482,388,o),
(509,443,o),
(509,519,cs),
(509,635,o),
(439,700,o),
(313,700,cs),
(89,700,l),
(89,0,l)
);
},
{
closed = 1;
nodes = (
(159,327,l),
(323,327,ls),
(410,327,o),
(459,285,o),
(459,209,cs),
(459,116,o),
(414,65,o),
(333,65,cs),
(159,65,l)
);
},
{
closed = 1;
nodes = (
(159,635,l),
(313,635,ls),
(394,635,o),
(439,594,o),
(439,519,cs),
(439,437,o),
(398,392,o),
(323,392,cs),
(159,392,l)
);
}
);
width = 600;
},
{
layerId = m002;
shapes = (
{
closed = 1;
nodes = (
(339,0,ls),
(497,0,o),
(585,75,o),
(585,209,cs),
(585,274,o),
(533,329,o),
(440,363,c),
(520,405,o),
(565,461,o),
(565,519,cs),
(565,635,o),
(477,700,o),
(319,700,cs),
(45,700,l),
(45,0,l)
);
},
{
closed = 1;
nodes = (
(215,307,l),
(329,307,ls),
(384,307,o),
(415,272,o),
(415,209,cs),
(415,149,o),
(388,115,o),
(339,115,cs),
(215,115,l)
);
},
{
closed = 1;
nodes = (
(215,585,l),
(319,585,ls),
(368,585,o),
(395,561,o),
(395,519,cs),
(395,457,o),
(371,422,o),
(329,422,cs),
(215,422,l)
);
}
);
width = 610;
}
);
unicode = 66;
},
{
glyphname = C;
lastChange = "2023-11-05 21:00:06 +0000";
layers = (
{
layerId = m01;
shapes = (
{
closed = 1;
nodes = (
(430,-8,o),
(507,18,o),
(554,65,c),
(511,115,l),
(474,78,o),
(412,57,o),
(337,57,cs),
(205,57,o),
(131,167,o),
(131,365,cs),
(131,545,o),
(201,645,o),
(327,645,cs),
(439,645,o),
(502,597,o),
(502,510,c),
(567,510,l),
(562,639,o),
(476,710,o),
(327,710,cs),
(156,710,o),
(61,587,o),
(61,365,cs),
(61,125,o),
(160,-8,o),
(337,-8,cs)
);
}
);
width = 610;
},
{
layerId = m002;
shapes = (
{
closed = 1;
nodes = (
(476,-8,o),
(571,18,o),
(618,65,c),
(525,165,l),
(488,128,o),
(426,107,o),
(351,107,cs),
(251,107,o),
(195,199,o),
(195,365,cs),
(195,513,o),
(247,595,o),
(341,595,cs),
(408,595,o),
(446,565,o),
(446,510,c),
(611,510,l),
(606,639,o),
(510,710,o),
(341,710,cs),
(138,710,o),
(25,587,o),
(25,365,cs),
(25,125,o),
(141,-8,o),
(351,-8,cs)
);
}
);
width = 628;
}
);
unicode = 67;
},
{
glyphname = D;
lastChange = "2023-11-05 21:00:06 +0000";
layers = (
{
layerId = m01;
shapes = (
{
closed = 1;
nodes = (
(328,0,ls),
(509,0,o),
(609,126,o),
(609,353,cs),
(609,576,o),
(509,700,o),
(328,700,cs),
(89,700,l),
(89,0,l)
);
},
{
closed = 1;
nodes = (
(159,635,l),
(328,635,ls),
(464,635,o),
(539,534,o),
(539,353,cs),
(539,168,o),
(464,65,o),
(328,65,cs),
(159,65,l)
);
}
);
width = 658;
},
{
layerId = m002;
shapes = (
{
closed = 1;
nodes = (
(334,0,ls),
(547,0,o),
(665,126,o),
(665,353,cs),
(665,576,o),
(547,700,o),
(334,700,cs),
(45,700,l),
(45,0,l)
);
},
{
closed = 1;
nodes = (
(215,585,l),
(334,585,ls),
(437,585,o),
(495,502,o),
(495,353,cs),
(495,200,o),
(437,115,o),
(334,115,cs),
(215,115,l)
);
}
);
width = 690;
}
);
unicode = 68;
},
{
glyphname = Eth;
lastChange = "2023-11-05 21:00:06 +0000";
layers = (
{
layerId = m01;
shapes = (
{
closed = 1;
nodes = (
(263,324,l),
(263,384,l),
(0,384,l),
(0,324,l)
);
},
{
ref = D;
}
);
width = 658;
},
{
layerId = m002;
shapes = (
{
closed = 1;
nodes = (
(263,324,l),
(263,384,l),
(0,384,l),
(0,324,l)
);
},
{
ref = D;
}
);
width = 658;
}
);
unicode = 208;
},
{
glyphname = E;
lastChange = "2023-11-05 21:00:06 +0000";
layers = (
{
layerId = m01;
shapes = (
{
closed = 1;
nodes = (
(463,0,l),
(463,65,l),
(159,65,l),
(159,328,l),
(463,328,l),
(463,393,l),
(159,393,l),
(159,635,l),
(463,635,l),
(463,700,l),
(89,700,l),
(89,0,l)
);
}
);
width = 530;
},
{
layerId = m002;
shapes = (
{
closed = 1;
nodes = (
(469,0,l),
(469,115,l),
(215,115,l),
(215,308,l),
(469,308,l),
(469,423,l),
(215,423,l),
(215,585,l),
(469,585,l),
(469,700,l),
(45,700,l),
(45,0,l)
);
}
);
width = 514;
}
);
unicode = 69;
},
{
glyphname = F;
lastChange = "2023-11-05 21:00:06 +0000";
layers = (
{
layerId = m01;
shapes = (
{
closed = 1;
nodes = (
(159,0,l),
(159,328,l),
(463,328,l),
(463,393,l),
(159,393,l),
(159,635,l),
(463,635,l),
(463,700,l),
(89,700,l),
(89,0,l)
);
}
);
width = 530;
},
{
layerId = m002;
shapes = (
{
closed = 1;
nodes = (
(215,0,l),
(215,308,l),
(469,308,l),
(469,423,l),
(215,423,l),
(215,585,l),
(469,585,l),
(469,700,l),
(45,700,l),
(45,0,l)
);
}
);
width = 504;
}
);
unicode = 70;
},
{
glyphname = G;
lastChange = "2023-11-05 21:00:06 +0000";
layers = (
{
layerId = m01;
shapes = (
{
closed = 1;
nodes = (
(455,-8,o),
(543,32,o),
(594,105,c),
(594,370,l),
(320,370,l),
(320,305,l),
(524,305,l),
(524,119,l),
(481,79,o),
(418,57,o),
(347,57,cs),
(208,57,o),
(131,163,o),
(131,355,cs),
(131,541,o),
(208,645,o),
(347,645,cs),
(457,645,o),
(520,597,o),
(523,510,c),
(587,510,l),
(582,639,o),
(496,710,o),
(347,710,cs),
(163,710,o),
(61,583,o),
(61,355,cs),
(61,122,o),
(163,-8,o),
(347,-8,cs)
);
}
);
width = 649;
},
{
layerId = m002;
shapes = (
{
closed = 1;
nodes = (
(501,-8,o),
(607,32,o),
(658,105,c),
(658,400,l),
(334,400,l),
(334,275,l),
(488,275,l),
(488,139,l),
(466,118,o),
(421,107,o),
(361,107,cs),
(254,107,o),
(195,196,o),
(195,355,cs),
(195,509,o),
(254,595,o),
(361,595,cs),
(440,595,o),
(485,565,o),
(487,510,c),
(651,510,l),
(646,639,o),
(542,710,o),
(361,710,cs),
(145,710,o),
(25,583,o),
(25,355,cs),
(25,122,o),
(145,-8,o),
(361,-8,cs)
);
}
);
width = 703;
}
);
unicode = 71;
},
{
glyphname = H;
lastChange = "2023-11-05 21:00:06 +0000";
layers = (
{
layerId = m01;
shapes = (
{
closed = 1;
nodes = (
(169,0,l),
(169,330,l),
(529,330,l),
(529,0,l),
(599,0,l),
(599,700,l),
(529,700,l),
(529,395,l),
(169,395,l),
(169,700,l),
(99,700,l),
(99,0,l)
);
}
);
width = 698;
},
{
layerId = m002;
shapes = (
{
closed = 1;
nodes = (
(215,0,l),
(215,300,l),
(475,300,l),
(475,0,l),
(645,0,l),
(645,700,l),
(475,700,l),
(475,415,l),
(215,415,l),
(215,700,l),
(45,700,l),
(45,0,l)
);
}
);
width = 690;
}
);
unicode = 72;
},
{
glyphname = I;
lastChange = "2023-11-05 21:00:06 +0000";
layers = (
{
layerId = m01;
shapes = (
{
closed = 1;
nodes = (
(174,0,l),
(174,700,l),
(104,700,l),
(104,0,l)
);
}
);
width = 278;
},
{
layerId = m002;
shapes = (
{
closed = 1;
nodes = (
(215,0,l),
(215,700,l),
(45,700,l),
(45,0,l)
);
}
);
width = 260;
}
);
unicode = 73;
},
{
glyphname = IJ;
lastChange = "2023-11-05 21:00:06 +0000";
layers = (
{
layerId = m01;
shapes = (
{
closed = 1;
nodes = (
(179,0,l),
(179,700,l),
(99,700,l),
(99,0,l)
);
},
{
pos = (234,0);
ref = J;
}
);
width = 512;
},
{
layerId = m002;
shapes = (
{
closed = 1;
nodes = (
(179,0,l),
(179,700,l),
(99,700,l),
(99,0,l)
);
},
{
pos = (234,0);
ref = J;
}
);
width = 512;
}
);
unicode = 306;
},
{
glyphname = J;
lastChange = "2023-11-05 21:00:06 +0000";
layers = (
{
layerId = m01;
shapes = (
{
closed = 1;
nodes = (
(110,-211,o),
(169,-136,o),
(169,0,cs),
(169,700,l),
(99,700,l),
(99,0,ls),
(99,-94,o),
(65,-146,o),
(3,-146,c),
(3,-211,l)
);
}
);
width = 268;
},
{
layerId = m002;
shapes = (
{
closed = 1;
nodes = (
(126,-211,o),
(221,-136,o),
(221,0,cs),
(221,700,l),
(51,700,l),
(51,50,ls),
(51,-44,o),
(17,-96,o),
(-45,-96,c),
(-45,-211,l)
);
}
);
width = 266;
}
);
unicode = 74;
},
{
glyphname = K;
lastChange = "2023-11-05 21:00:06 +0000";
layers = (
{
layerId = m01;
shapes = (
{
closed = 1;
nodes = (
(169,0,l),
(169,360,l),
(478,0,l),
(570,0,l),
(257,365,l),
(548,700,l),
(462,700,l),
(169,362,l),
(169,700,l),
(99,700,l),
(99,0,l)
);
}
);
width = 590;
},
{
layerId = m002;
shapes = (
{
closed = 1;
nodes = (
(215,0,l),
(215,360,l),
(474,0,l),
(666,0,l),
(403,365,l),
(644,700,l),
(458,700,l),
(215,362,l),
(215,700,l),
(45,700,l),
(45,0,l)
);
}
);
width = 666;
}
);
unicode = 75;
},
{
glyphname = L;
lastChange = "2023-11-05 21:00:06 +0000";
layers = (
{
layerId = m01;
shapes = (
{
closed = 1;
nodes = (
(496,0,l),
(496,65,l),
(169,65,l),
(169,700,l),
(99,700,l),
(99,0,l)
);
}
);
width = 530;
},
{
layerId = m002;
shapes = (
{
closed = 1;
nodes = (
(492,0,l),
(492,115,l),
(215,115,l),
(215,700,l),
(45,700,l),
(45,0,l)
);
}
);
width = 517;
}
);
unicode = 76;
},
{
glyphname = M;
lastChange = "2023-11-05 21:00:06 +0000";
layers = (
{
layerId = m01;
shapes = (
{
closed = 1;
nodes = (
(154,0,l),
(154,561,l),
(369,0,l),
(454,0,l),
(670,547,l),
(670,0,l),
(740,0,l),
(740,700,l),
(660,700,l),
(415,77,l),
(174,700,l),
(89,700,l),
(89,0,l)
);
}
);
width = 829;
},
{
layerId = m002;
shapes = (
{
closed = 1;
nodes = (
(207,0,l),
(207,397,l),
(345,0,l),
(490,0,l),
(632,412,l),
(632,0,l),
(796,0,l),
(796,700,l),
(616,700,l),
(421,177,l),
(230,700,l),
(45,700,l),
(45,0,l)
);
}
);
width = 841;
}
);
unicode = 77;
},
{
glyphname = N;
lastChange = "2023-11-05 21:00:06 +0000";
layers = (
{
layerId = m01;
shapes = (
{
closed = 1;
nodes = (
(155,0,l),
(155,604,l),
(521,0,l),
(610,0,l),
(610,700,l),
(545,700,l),
(545,95,l),
(179,700,l),
(90,700,l),
(90,0,l)
);
}
);
width = 700;
},
{
layerId = m002;
shapes = (
{
closed = 1;
nodes = (
(210,0,l),
(210,410,l),
(526,0,l),
(665,0,l),
(665,700,l),
(500,700,l),
(500,290,l),
(184,700,l),
(45,700,l),
(45,0,l)
);
}
);
width = 710;
}
);
unicode = 78;
},
{
glyphname = O;
lastChange = "2023-11-05 21:00:06 +0000";
layers = (
{
layerId = m01;
shapes = (
{
closed = 1;
nodes = (
(518,-8,o),
(636,142,o),
(636,353,cs),
(636,562,o),
(518,710,o),
(350,710,cs),
(182,710,o),
(64,565,o),
(64,361,cs),
(64,145,o),
(182,-8,o),
(350,-8,cs)
);
},
{
closed = 1;
nodes = (
(211,57,o),
(134,166,o),
(134,361,cs),
(134,544,o),
(211,645,o),
(350,645,cs),
(489,645,o),
(566,541,o),
(566,353,cs),
(566,163,o),
(489,57,o),
(350,57,cs)
);
}
);
width = 700;
},
{
layerId = m002;
shapes = (
{
closed = 1;
nodes = (
(557,-8,o),
(696,142,o),
(696,353,cs),
(696,562,o),
(557,710,o),
(360,710,cs),
(163,710,o),
(24,565,o),
(24,361,cs),
(24,145,o),
(163,-8,o),
(360,-8,cs)
);
},
{
closed = 1;
nodes = (
(253,107,o),
(194,198,o),
(194,361,cs),
(194,511,o),
(253,595,o),
(360,595,cs),
(467,595,o),
(526,509,o),
(526,353,cs),
(526,195,o),
(467,107,o),
(360,107,cs)
);
}
);
width = 720;
}
);
unicode = 79;
},
{
glyphname = Oslash;
lastChange = "2023-11-05 21:00:06 +0000";
layers = (
{
layerId = m01;
shapes = (
{
closed = 1;
nodes = (
(119,0,l),
(656,700,l),
(581,700,l),
(44,0,l)
);
},
{
ref = O;
}
);
width = 700;
},
{
layerId = m002;
shapes = (
{
closed = 1;
nodes = (
(119,0,l),
(656,700,l),
(581,700,l),
(44,0,l)
);
},
{
ref = O;
}
);
width = 700;
}
);
unicode = 216;
},
{
glyphname = OE;
lastChange = "2023-11-05 21:00:06 +0000";
layers = (
{
layerId = m01;
shapes = (
{
closed = 1;
nodes = (
(516,-8,o),
(618,121,o),
(618,353,cs),
(618,582,o),
(516,710,o),
(332,710,cs),
(148,710,o),
(46,585,o),
(46,361,cs),
(46,124,o),
(148,-8,o),
(332,-8,cs)
);
},
{
closed = 1;
nodes = (
(200,57,o),
(116,175,o),
(116,361,cs),
(116,534,o),
(200,645,o),
(332,645,cs),
(464,645,o),
(538,531,o),
(538,353,cs),
(538,172,o),
(464,57,o),
(332,57,cs)
);
},
{
closed = 1;
nodes = (
(912,0,l),
(912,65,l),
(618,65,l),
(618,327,l),
(912,327,l),
(912,392,l),
(618,392,l),
(618,635,l),
(912,635,l),
(912,700,l),
(548,700,l),
(548,0,l)
);
}
);
width = 979;
},
{
layerId = m002;
shapes = (
{
closed = 1;
nodes = (
(516,-8,o),
(618,121,o),
(618,353,cs),
(618,582,o),
(516,710,o),
(332,710,cs),
(148,710,o),
(46,585,o),
(46,361,cs),
(46,124,o),
(148,-8,o),
(332,-8,cs)
);
},
{
closed = 1;
nodes = (
(200,57,o),
(116,175,o),
(116,361,cs),
(116,534,o),
(200,645,o),
(332,645,cs),
(464,645,o),
(538,531,o),
(538,353,cs),
(538,172,o),
(464,57,o),
(332,57,cs)
);
},
{
closed = 1;
nodes = (
(912,0,l),
(912,65,l),
(618,65,l),
(618,327,l),
(912,327,l),
(912,392,l),
(618,392,l),
(618,635,l),
(912,635,l),
(912,700,l),
(548,700,l),
(548,0,l)
);
}
);
width = 979;
}
);
unicode = 338;
},
{
glyphname = P;
lastChange = "2023-11-05 21:00:06 +0000";
layers = (
{
layerId = m01;
shapes = (
{
closed = 1;
nodes = (
(169,0,l),
(169,290,l),
(323,290,ls),
(455,290,o),
(529,360,o),
(529,486,cs),
(529,624,o),
(459,700,o),
(333,700,cs),
(99,700,l),
(99,0,l)
);
},
{
closed = 1;
nodes = (
(169,635,l),
(333,635,ls),
(414,635,o),
(459,582,o),
(459,486,cs),
(459,402,o),
(410,355,o),
(323,355,cs),
(169,355,l)
);
}
);
width = 571;
},
{
layerId = m002;
shapes = (
{
closed = 1;
nodes = (
(215,0,l),
(215,250,l),
(319,250,ls),
(484,250,o),
(575,327,o),
(575,466,cs),
(575,616,o),
(487,700,o),
(329,700,cs),
(45,700,l),
(45,0,l)
);
},
{
closed = 1;
nodes = (
(215,585,l),
(329,585,ls),
(378,585,o),
(405,542,o),
(405,466,cs),
(405,401,o),
(374,365,o),
(319,365,cs),
(215,365,l)
);
}
);
width = 590;
}
);
unicode = 80;
},
{
glyphname = Thorn;
lastChange = "2023-11-05 21:00:06 +0000";
layers = (
{
layerId = m01;
shapes = (
{
closed = 1;
nodes = (
(169,0,l),
(169,140,l),
(323,140,ls),
(462,140,o),
(539,210,o),
(539,336,cs),
(539,474,o),
(465,550,o),
(333,550,cs),
(169,550,l),
(169,700,l),
(99,700,l),
(99,0,l)
);
},
{
closed = 1;
nodes = (
(169,485,l),
(333,485,ls),
(420,485,o),
(469,432,o),
(469,336,cs),
(469,252,o),
(417,205,o),
(323,205,cs),
(169,205,l)
);
}
);
width = 600;
},
{
layerId = m002;
shapes = (
{
closed = 1;
nodes = (
(169,0,l),
(169,140,l),
(323,140,ls),
(462,140,o),
(539,210,o),
(539,336,cs),
(539,474,o),
(465,550,o),
(333,550,cs),
(169,550,l),
(169,700,l),
(99,700,l),
(99,0,l)
);
},
{
closed = 1;
nodes = (
(169,485,l),
(333,485,ls),
(420,485,o),
(469,432,o),
(469,336,cs),
(469,252,o),
(417,205,o),
(323,205,cs),
(169,205,l)
);
}
);
width = 600;
}
);
unicode = 222;
},
{
glyphname = Q;
lastChange = "2023-11-05 21:00:06 +0000";
layers = (
{
layerId = m01;
shapes = (
{
closed = 1;
nodes = (
(613,-200,l),
(432,1,l),
(563,33,o),
(656,179,o),
(656,353,cs),
(656,562,o),
(533,710,o),
(360,710,cs),
(187,710,o),
(64,565,o),
(64,361,cs),
(64,147,o),
(185,-6,o),
(355,-8,c),
(518,-200,l)
);
},
{
closed = 1;
nodes = (
(215,57,o),
(134,166,o),
(134,361,cs),
(134,544,o),
(215,645,o),
(360,645,cs),
(505,645,o),
(586,541,o),
(586,353,cs),
(586,163,o),
(505,57,o),
(360,57,cs)
);
}
);
width = 710;
},
{
layerId = m002;
shapes = (
{
closed = 1;
nodes = (
(674,-200,l),
(484,13,l),
(620,61,o),
(717,202,o),
(717,353,cs),
(717,562,o),
(574,710,o),
(371,710,cs),
(168,710,o),
(25,565,o),
(25,361,cs),
(25,148,o),
(166,-5,o),
(366,-8,c),
(479,-200,l)
);
},
{
closed = 1;
nodes = (
(258,107,o),
(195,198,o),
(195,361,cs),
(195,511,o),
(258,595,o),
(371,595,cs),
(484,595,o),
(547,509,o),
(547,353,cs),
(547,195,o),
(484,107,o),
(371,107,cs)
);
}
);
width = 742;
}
);
unicode = 81;
},
{
glyphname = R;
lastChange = "2023-11-05 21:00:06 +0000";
layers = (
{
layerId = m01;
shapes = (
{
closed = 1;
nodes = (
(159,0,l),
(159,300,l),
(288,300,l),
(458,0,l),
(540,0,l),
(361,303,l),
(469,325,o),
(529,392,o),
(529,491,cs),
(529,625,o),
(459,700,o),
(333,700,cs),
(89,700,l),
(89,0,l)
);
},
{
closed = 1;
nodes = (
(159,635,l),
(333,635,ls),
(414,635,o),
(459,584,o),
(459,491,cs),
(459,410,o),
(410,365,o),
(323,365,cs),
(159,365,l)
);
}
);
width = 600;
},
{
layerId = m002;
shapes = (
{
closed = 1;
nodes = (
(215,0,l),
(215,260,l),
(254,260,l),
(424,0,l),
(626,0,l),
(447,263,l),
(536,289,o),
(585,364,o),
(585,471,cs),
(585,618,o),
(497,700,o),
(339,700,cs),
(45,700,l),
(45,0,l)
);
},
{
closed = 1;
nodes = (
(215,585,l),
(339,585,ls),
(388,585,o),
(415,544,o),
(415,471,cs),
(415,409,o),
(384,375,o),
(329,375,cs),
(215,375,l)
);
}
);
width = 606;
}
);
unicode = 82;
},
{
glyphname = S;
lastChange = "2023-11-05 21:00:06 +0000";
layers = (
{
layerId = m01;
shapes = (
{
closed = 1;
nodes = (
(414,-8,o),
(493,64,o),
(493,193,cs),
(493,401,o),
(128,378,o),
(128,523,cs),
(128,601,o),
(180,644,o),
(273,644,cs),
(361,644,o),
(411,601,o),
(414,523,c),
(479,523,l),
(474,643,o),
(400,709,o),
(273,709,cs),
(135,709,o),
(58,643,o),
(58,523,cs),
(58,315,o),
(423,338,o),
(423,193,cs),
(423,106,o),
(369,57,o),
(273,57,cs),
(179,57,o),
(125,106,o),
(122,193,c),
(57,193,l),
(62,64,o),
(139,-8,o),
(273,-8,cs)
);
}
);
width = 550;
},
{
layerId = m002;
shapes = (
{
closed = 1;
nodes = (
(450,-8,o),
(546,64,o),
(546,193,cs),
(546,441,o),
(181,408,o),
(181,523,cs),
(181,569,o),
(215,594,o),
(276,594,cs),
(333,594,o),
(365,569,o),
(367,523,c),
(532,523,l),
(527,643,o),
(436,709,o),
(276,709,cs),
(106,709,o),
(11,643,o),
(11,523,cs),
(11,275,o),
(376,308,o),
(376,193,cs),
(376,138,o),
(340,107,o),
(276,107,cs),
(213,107,o),
(177,138,o),
(175,193,c),
(10,193,l),
(15,64,o),
(110,-8,o),
(276,-8,cs)
);
}
);
width = 556;
}
);
unicode = 83;
},
{
glyphname = Germandbls;
lastChange = "2023-11-05 21:00:07 +0000";
layers = (
{
layerId = m01;
shapes = (
{
closed = 1;
nodes = (
(477,-15,o),
(545,49,o),
(545,163,cs),
(545,303,o),
(375,278,o),
(375,348,cs),
(375,418,o),
(512,402,o),
(512,542,cs),
(512,644,o),
(442,700,o),
(315,700,cs),
(96,700,l),
(96,0,l),
(166,0,l),
(166,635,l),
(315,635,ls),
(397,635,o),
(442,602,o),
(442,542,cs),
(442,441,o),
(305,478,o),
(305,348,cs),
(305,218,o),
(475,243,o),
(475,163,cs),
(475,90,o),
(432,50,o),
(354,50,cs),
(331,50,o),
(306,62,o),
(285,83,c),
(245,30,l),
(274,1,o),
(313,-15,o),
(354,-15,cs)
);
}
);
width = 610;
},
{
layerId = m002;
shapes = (
{
closed = 1;
nodes = (
(477,-15,o),
(545,49,o),
(545,163,cs),
(545,303,o),
(375,278,o),
(375,348,cs),
(375,418,o),
(512,402,o),
(512,542,cs),
(512,644,o),
(442,700,o),
(315,700,cs),
(96,700,l),
(96,0,l),
(166,0,l),
(166,635,l),
(315,635,ls),
(397,635,o),
(442,602,o),
(442,542,cs),
(442,441,o),
(305,478,o),
(305,348,cs),
(305,218,o),
(475,243,o),
(475,163,cs),
(475,90,o),
(432,50,o),
(354,50,cs),
(331,50,o),
(306,62,o),
(285,83,c),
(245,30,l),
(274,1,o),
(313,-15,o),
(354,-15,cs)
);
}
);
width = 610;
}
);
unicode = 7838;
},
{
glyphname = T;
lastChange = "2023-11-05 21:00:06 +0000";
layers = (
{
layerId = m01;
shapes = (
{
closed = 1;
nodes = (
(305,0,l),
(305,635,l),
(513,635,l),
(513,700,l),
(26,700,l),
(26,635,l),
(235,635,l),
(235,0,l)
);
}
);
width = 539;
},
{
layerId = m002;
shapes = (
{
closed = 1;
nodes = (
(329,0,l),
(329,585,l),
(487,585,l),
(487,700,l),
(0,700,l),
(0,585,l),
(159,585,l),
(159,0,l)
);
}
);
width = 487;
}
);
unicode = 84;
},
{
glyphname = U;
lastChange = "2023-11-05 21:00:06 +0000";
layers = (
{
layerId = m01;
shapes = (
{
closed = 1;
nodes = (
(491,-8,o),
(586,93,o),
(586,253,cs),
(586,700,l),
(521,700,l),
(521,253,ls),
(521,127,o),
(456,57,o),
(340,57,cs),
(227,57,o),
(164,130,o),
(164,261,cs),
(164,700,l),
(94,700,l),
(94,261,ls),
(94,96,o),
(189,-8,o),
(340,-8,cs)
);
}
);
width = 680;
},
{
layerId = m002;
shapes = (
{
closed = 1;
nodes = (
(531,-8,o),
(637,85,o),
(637,253,cs),
(637,700,l),
(472,700,l),
(472,253,ls),
(472,159,o),
(425,107,o),
(341,107,cs),
(260,107,o),
(215,162,o),
(215,261,cs),
(215,700,l),
(45,700,l),
(45,261,ls),
(45,88,o),
(151,-8,o),
(341,-8,cs)
);
}
);
width = 682;
}
);
unicode = 85;
},
{
glyphname = V;
lastChange = "2023-11-05 21:00:06 +0000";
layers = (
{
layerId = m01;
shapes = (
{
closed = 1;
nodes = (
(331,0,l),
(562,700,l),
(488,700,l),
(290,94,l),
(82,700,l),
(8,700,l),
(251,0,l)
);
}
);
width = 570;
},
{
layerId = m002;
shapes = (
{
closed = 1;
nodes = (
(423,0,l),
(654,700,l),
(480,700,l),
(332,214,l),
(174,700,l),
(0,700,l),
(243,0,l)
);
}
);
width = 654;
}
);
unicode = 86;
},
{
glyphname = W;
lastChange = "2023-11-05 21:00:06 +0000";
layers = (
{
layerId = m01;
shapes = (
{
closed = 1;
nodes = (
(257,0,l),
(383,581,l),
(523,0,l),
(605,0,l),
(784,700,l),
(717,700,l),
(567,114,l),
(427,700,l),
(342,700,l),
(213,102,l),
(64,700,l),
(-8,700,l),
(166,0,l)
);
}
);
width = 771;
},
{
layerId = m002;
shapes = (
{
closed = 1;
nodes = (
(295,0,l),
(421,476,l),
(561,0,l),
(673,0,l),
(852,700,l),
(695,700,l),
(595,275,l),
(495,700,l),
(350,700,l),
(261,275,l),
(162,700,l),
(0,700,l),
(174,0,l)
);
}
);
width = 852;
}
);
unicode = 87;
},
{
glyphname = X;
lastChange = "2023-11-05 21:00:06 +0000";
layers = (
{
layerId = m01;
shapes = (
{
closed = 1;
nodes = (
(95,0,l),
(282,319,l),
(481,0,l),
(563,0,l),
(331,373,l),
(529,700,l),
(453,700,l),
(293,436,l),
(121,700,l),
(37,700,l),
(244,383,l),
(19,0,l)
);
}
);
width = 580;
},
{
background = {
shapes = (
{
closed = 1;
nodes = (
(415,0,l),
(646,700,l),
(472,700,l),
(324,214,l),
(166,700,l),
(-8,700,l),
(235,0,l)
);
},
{
closed = 1;
nodes = (
(-8,0,l),
(166,0,l),
(324,486,l),
(472,0,l),
(646,0,l),
(415,700,l),
(235,700,l)
);
}
);
};
layerId = m002;
shapes = (
{
closed = 1;
nodes = (
(196,0,l),
(320,209,l),
(436,0,l),
(636,0,l),
(410,356,l),
(636,700,l),
(442,700,l),
(331,489,l),
(195,700,l),
(1,700,l),
(250,356,l),
(0,0,l)
);
}
);
width = 636;
}
);
unicode = 88;
},
{
glyphname = Y;
lastChange = "2023-11-05 21:00:06 +0000";
layers = (
{
layerId = m01;
shapes = (
{
closed = 1;
nodes = (
(308,0,l),
(310,277,l),
(529,700,l),
(456,700,l),
(277,354,l),
(83,700,l),
(3,700,l),
(240,277,l),
(238,0,l)
);
}
);
width = 550;
},
{
layerId = m002;
shapes = (
{
closed = 1;
nodes = (
(405,0,l),
(407,277,l),
(626,700,l),
(453,700,l),
(324,424,l),
(180,700,l),
(0,700,l),
(237,277,l),
(235,0,l)
);
}
);
width = 626;
}
);
unicode = 89;
},
{
glyphname = Z;
lastChange = "2023-11-05 21:00:06 +0000";
layers = (
{
layerId = m01;
shapes = (
{
closed = 1;
nodes = (
(522,0,l),
(522,65,l),
(141,65,l),
(545,700,l),
(47,700,l),
(47,635,l),
(421,635,l),
(16,0,l)
);
}
);
width = 560;
},
{
layerId = m002;
shapes = (
{
closed = 1;
nodes = (
(606,0,l),
(606,115,l),
(255,115,l),
(629,700,l),
(31,700,l),
(31,585,l),
(375,585,l),
(0,0,l)
);
}
);
width = 629;
}
);
unicode = 90;
},
{
glyphname = a;
lastChange = "2023-11-05 21:00:06 +0000";
layers = (
{
layerId = m01;
shapes = (
{
closed = 1;
nodes = (
(299,-15,o),
(353,6,o),
(392,45,c),
(392,0,l),
(462,0,l),
(462,388,ls),
(462,502,o),
(395,566,o),
(275,566,cs),
(200,566,o),
(139,543,o),
(104,502,c),
(104,421,l),
(147,472,o),
(208,501,o),
(275,501,cs),
(350,501,o),
(392,461,o),
(392,388,cs),
(392,328,l),
(181,322,o),
(64,257,o),
(64,146,cs),
(64,43,o),
(127,-15,o),
(241,-15,cs)
);
},
{
closed = 1;
nodes = (
(172,47,o),
(134,82,o),
(134,146,cs),
(134,221,o),
(226,266,o),
(392,271,c),
(392,105,l),
(351,68,o),
(297,47,o),
(241,47,cs)
);
}
);
width = 548;
},
{
layerId = m002;
shapes = (
{
closed = 1;
nodes = (
(263,-15,o),
(317,19,o),
(343,45,c),
(343,0,l),
(513,0,l),
(513,388,ls),
(513,502,o),
(428,566,o),
(276,566,cs),
(169,566,o),
(90,543,o),
(55,502,c),
(55,371,l),
(98,422,o),
(159,451,o),
(226,451,cs),
(301,451,o),
(343,428,o),
(343,388,cs),
(343,348,l),
(132,342,o),
(15,270,o),
(15,146,cs),
(15,43,o),
(78,-15,o),
(192,-15,cs)
);
},
{
closed = 1;
nodes = (
(205,97,o),
(185,115,o),
(185,146,cs),
(185,204,o),
(241,238,o),
(343,241,c),
(343,135,l),
(314,111,o),
(278,97,o),
(242,97,cs)
);
}
);
width = 558;
}
);
unicode = 97;
},
{
glyphname = ae;
lastChange = "2023-11-05 21:00:07 +0000";
layers = (
{
layerId = m01;
shapes = (
{
closed = 1;
nodes = (
(699,-17,o),
(769,12,o),
(822,65,c),
(787,112,l),
(738,71,o),
(680,48,o),
(625,48,cs),
(531,48,o),
(472,120,o),
(461,250,c),
(797,245,l),
(835,275,l),
(832,462,o),
(757,566,o),
(625,566,cs),
(480,566,o),
(399,464,o),
(399,280,cs),
(399,89,o),
(480,-17,o),
(625,-17,cs)
);
},
{
closed = 1;
nodes = (
(176,46,o),
(141,85,o),
(141,154,cs),
(141,224,o),
(233,266,o),
(399,271,c),
(399,125,l),
(345,74,o),
(288,46,o),
(238,46,cs)
);
},
{
closed = 1;
nodes = (
(284,-16,o),
(342,13,o),
(399,65,cs),
(466,121,l),
(459,272,l),
(459,380,ls),
(459,498,o),
(396,564,o),
(282,564,cs),
(202,564,o),
(136,539,o),
(99,495,c),
(141,444,l),
(170,479,o),
(221,499,o),
(282,499,cs),
(357,499,o),
(399,456,o),
(399,380,cs),
(399,323,l),
(188,317,o),
(71,257,o),
(71,154,cs),
(71,45,o),
(131,-16,o),
(238,-16,cs)
);
},
{
closed = 1;
nodes = (
(465,431,o),
(524,501,o),
(625,501,cs),
(706,501,o),
(756,431,o),
(764,305,c),
(459,305,l)
);
}
);
width = 902;
},
{
layerId = m002;
shapes = (
{
closed = 1;
nodes = (
(699,-17,o),
(769,12,o),
(822,65,c),
(787,112,l),
(738,71,o),
(680,48,o),
(625,48,cs),
(531,48,o),
(472,120,o),
(461,250,c),
(797,245,l),
(835,275,l),
(832,462,o),
(757,566,o),
(625,566,cs),
(480,566,o),
(399,464,o),
(399,280,cs),
(399,89,o),
(480,-17,o),
(625,-17,cs)
);
},
{
closed = 1;
nodes = (
(176,46,o),
(141,85,o),
(141,154,cs),
(141,224,o),
(233,266,o),
(399,271,c),
(399,125,l),
(345,74,o),
(288,46,o),
(238,46,cs)
);
},
{
closed = 1;
nodes = (
(284,-16,o),
(342,13,o),
(399,65,cs),
(466,121,l),
(459,272,l),
(459,380,ls),
(459,498,o),
(396,564,o),
(282,564,cs),
(202,564,o),
(136,539,o),
(99,495,c),
(141,444,l),
(170,479,o),
(221,499,o),
(282,499,cs),
(357,499,o),
(399,456,o),
(399,380,cs),
(399,323,l),
(188,317,o),
(71,257,o),
(71,154,cs),
(71,45,o),
(131,-16,o),
(238,-16,cs)
);
},
{
closed = 1;
nodes = (
(465,431,o),
(524,501,o),
(625,501,cs),
(706,501,o),
(756,431,o),
(764,305,c),
(459,305,l)
);
}
);
width = 902;
}
);
unicode = 230;
},
{
glyphname = b;
lastChange = "2023-11-05 21:00:06 +0000";
layers = (
{
layerId = m01;
shapes = (
{
closed = 1;
nodes = (
(451,-16,o),
(534,90,o),
(534,280,cs),
(534,464,o),
(451,566,o),
(303,566,cs),
(244,566,o),
(191,543,o),
(156,502,c),
(156,750,l),
(86,750,l),
(86,65,l),
(144,13,o),
(222,-16,o),
(303,-16,cs)
);
},
{
closed = 1;
nodes = (
(248,49,o),
(195,65,o),
(156,93,c),
(156,421,l),
(199,472,o),
(252,501,o),
(303,501,cs),
(406,501,o),
(464,422,o),
(464,280,cs),
(464,132,o),
(406,49,o),
(303,49,cs)
);
}
);
width = 600;
},
{
layerId = m002;
shapes = (
{
closed = 1;
nodes = (
(493,-16,o),
(593,90,o),
(593,280,cs),
(593,464,o),
(510,566,o),
(362,566,cs),
(283,566,o),
(230,543,o),
(215,502,c),
(215,750,l),
(45,750,l),
(45,65,l),
(103,13,o),
(198,-16,o),
(312,-16,cs)
);
},
{
closed = 1;
nodes = (
(279,99,o),
(244,115,o),
(215,143,c),
(215,371,l),
(238,422,o),
(273,451,o),
(312,451,cs),
(383,451,o),
(423,390,o),
(423,280,cs),
(423,164,o),
(383,99,o),
(312,99,cs)
);
}
);
width = 618;
}
);
unicode = 98;
},
{
glyphname = c;
lastChange = "2023-11-05 21:00:06 +0000";
layers = (
{
layerId = m01;
shapes = (
{
closed = 1;
nodes = (
(378,-16,o),
(450,9,o),
(503,53,c),
(463,106,l),
(426,69,o),
(369,49,o),
(302,49,cs),
(195,49,o),
(136,132,o),
(136,280,cs),
(136,421,o),
(195,500,o),
(302,500,cs),
(376,500,o),
(422,454,o),
(432,370,c),
(502,370,l),
(497,495,o),
(426,565,o),
(302,565,cs),
(150,565,o),
(66,463,o),
(66,280,cs),
(66,90,o),
(150,-16,o),
(302,-16,cs)
);
}
);
width = 568;
},
{
associatedMasterId = m01;
layerId = "4B991926-2E11-4E01-9571-E498AC9A6370";
name = "5. Sept. 23, 11:23";
shapes = (
{
closed = 1;
nodes = (
(395,7,o),
(472,38,o),
(514,94,c),
(514,222,l),
(464,233,l),
(421,169,o),
(362,134,o),
(299,134,cs),
(244,134,o),
(214,186,o),
(214,280,cs),
(214,369,o),
(244,418,o),
(299,418,cs),
(338,418,o),
(360,383,o),
(360,319,c),
(522,319,l),
(522,464,o),
(442,545,o),
(299,545,cs),
(140,545,o),
(52,450,o),
(52,280,cs),
(52,105,o),
(140,7,o),
(299,7,cs)
);
}
);
width = 568;
},
{
background = {
shapes = (
{
closed = 1;
nodes = (
(428,-16,o),
(513,10,o),
(560,57,c),
(522,156,l),
(490,119,o),
(430,99,o),
(353,99,cs),
(260,99,o),
(205,144,o),
(199,225,c),
(535,225,l),
(573,275,l),
(573,462,o),
(480,566,o),
(313,566,cs),
(129,566,o),
(27,464,o),
(27,280,cs),
(27,90,o),
(133,-16,o),
(323,-16,cs)
);
},
{
closed = 1;
nodes = (
(201,406,o),
(242,451,o),
(313,451,cs),
(368,451,o),
(400,406,o),
(402,325,c),
(197,325,l)
);
}
);
};
layerId = m002;
shapes = (
{
closed = 1;
nodes = (
(429,-16,o),
(509,9,o),
(562,53,c),
(522,156,l),
(492,119,o),
(428,99,o),
(341,99,cs),
(247,99,o),
(195,164,o),
(195,280,cs),
(195,389,o),
(236,450,o),
(311,450,cs),
(356,450,o),
(385,421,o),
(391,370,c),
(561,370,l),
(556,495,o),
(467,565,o),
(311,565,cs),
(127,565,o),
(25,463,o),
(25,280,cs),
(25,90,o),
(137,-16,o),
(321,-16,cs)
);
}
);
width = 572;
},
{
associatedMasterId = m002;
layerId = "3E0A56D2-431B-47BA-83B2-3E599D275248";
name = "5. Sept. 23, 11:23";
shapes = (
{
closed = 1;
nodes = (
(395,7,o),
(472,38,o),
(514,94,c),
(514,222,l),
(464,233,l),
(421,169,o),
(362,134,o),
(299,134,cs),
(244,134,o),
(214,186,o),
(214,280,cs),
(214,369,o),
(244,418,o),
(299,418,cs),
(338,418,o),
(360,383,o),
(360,319,c),
(522,319,l),
(522,464,o),
(442,545,o),
(299,545,cs),
(140,545,o),
(52,450,o),
(52,280,cs),
(52,105,o),
(140,7,o),
(299,7,cs)
);
}
);
width = 568;
}
);
unicode = 99;
},
{
glyphname = d;
lastChange = "2023-11-05 21:00:06 +0000";
layers = (
{
layerId = m01;
shapes = (
{
closed = 1;
nodes = (
(355,-16,o),
(407,3,o),
(444,36,c),
(444,0,l),
(514,0,l),
(514,750,l),
(444,750,l),
(444,514,l),
(406,547,o),
(354,566,o),
(297,566,cs),
(149,566,o),
(66,464,o),
(66,280,cs),
(66,90,o),
(149,-16,o),
(297,-16,cs)
);
},
{
closed = 1;
nodes = (
(194,49,o),
(136,132,o),
(136,280,cs),
(136,422,o),
(194,501,o),
(297,501,cs),
(352,501,o),
(404,480,o),
(444,443,c),
(444,97,l),
(406,66,o),
(353,49,o),
(297,49,cs)
);
}
);
width = 600;
},
{
layerId = m002;
shapes = (
{
closed = 1;
nodes = (
(316,-16,o),
(364,1,o),
(403,36,c),
(403,0,l),
(573,0,l),
(573,750,l),
(403,750,l),
(403,514,l),
(363,549,o),
(314,566,o),
(256,566,cs),
(101,566,o),
(25,472,o),
(25,280,cs),
(25,81,o),
(101,-16,o),
(256,-16,cs)
);
},
{
closed = 1;
nodes = (
(231,99,o),
(195,158,o),
(195,280,cs),
(195,395,o),
(231,451,o),
(306,451,cs),
(344,451,o),
(375,439,o),
(403,413,c),
(403,127,l),
(380,108,o),
(348,99,o),
(306,99,cs)
);
}
);
width = 618;
}
);
unicode = 100;
},
{
glyphname = eth;
lastChange = "2023-11-05 21:00:06 +0000";
layers = (
{
layerId = m01;
shapes = (
{
closed = 1;
nodes = (
(459,-16,o),
(528,119,o),
(528,363,cs),
(528,598,o),
(432,765,o),
(297,765,c),
(297,695,l),
(391,693,o),
(458,556,o),
(458,363,cs),
(458,161,o),
(431,49,o),
(299,49,cs),
(208,49,o),
(143,124,o),
(143,231,cs),
(143,310,o),
(208,366,o),
(299,366,cs),
(383,366,o),
(451,305,o),
(451,219,c),
(501,219,l),
(501,343,o),
(413,431,o),
(299,431,cs),
(167,431,o),
(73,348,o),
(73,231,cs),
(73,86,o),
(167,-16,o),
(299,-16,cs)
);
},
{
closed = 1;
nodes = (
(562,660,l),
(528,709,l),
(320,565,l),
(354,516,l)
);
}
);
width = 600;
},
{
layerId = m002;
shapes = (
{
closed = 1;
nodes = (
(459,-16,o),
(528,119,o),
(528,363,cs),
(528,598,o),
(432,765,o),
(297,765,c),
(297,695,l),
(391,693,o),
(458,556,o),
(458,363,cs),
(458,161,o),
(431,49,o),
(299,49,cs),
(208,49,o),
(143,124,o),
(143,231,cs),
(143,310,o),
(208,366,o),
(299,366,cs),
(383,366,o),
(451,305,o),
(451,219,c),
(501,219,l),
(501,343,o),
(413,431,o),
(299,431,cs),
(167,431,o),
(73,348,o),
(73,231,cs),
(73,86,o),
(167,-16,o),
(299,-16,cs)
);
},
{
closed = 1;
nodes = (
(562,660,l),
(528,709,l),
(320,565,l),
(354,516,l)
);
}
);
width = 600;
}
);
unicode = 240;
},
{
glyphname = e;
lastChange = "2023-11-05 21:00:06 +0000";
layers = (
{
layerId = m01;
shapes = (
{
closed = 1;
nodes = (
(385,-16,o),
(452,10,o),
(499,57,c),
(461,106,l),
(429,69,o),
(376,49,o),
(312,49,cs),
(210,49,o),
(148,119,o),
(138,245,c),
(474,245,l),
(512,275,l),
(512,462,o),
(437,566,o),
(302,566,cs),
(150,566,o),
(66,464,o),
(66,280,cs),
(66,90,o),
(154,-16,o),
(312,-16,cs)
);
},
{
closed = 1;
nodes = (
(142,431,o),
(201,501,o),
(302,501,cs),
(388,501,o),
(438,431,o),
(441,305,c),
(136,305,l)
);
}
);
width = 574;
},
{
layerId = m002;
shapes = (
{
closed = 1;
nodes = (
(426,-16,o),
(511,10,o),
(558,57,c),
(520,156,l),
(488,119,o),
(428,99,o),
(351,99,cs),
(258,99,o),
(203,144,o),
(197,225,c),
(533,225,l),
(571,275,l),
(571,462,o),
(478,566,o),
(311,566,cs),
(127,566,o),
(25,464,o),
(25,280,cs),
(25,90,o),
(131,-16,o),
(321,-16,cs)
);
},
{
closed = 1;
nodes = (
(199,406,o),
(240,451,o),
(311,451,cs),
(366,451,o),
(398,406,o),
(400,325,c),
(195,325,l)
);
}
);
width = 596;
}
);
unicode = 101;
},
{
glyphname = f;
lastChange = "2023-11-05 21:00:06 +0000";
layers = (
{
layerId = m01;
shapes = (
{
closed = 1;
nodes = (
(206,0,l),
(206,485,l),
(330,485,l),
(330,550,l),
(206,550,l),
(206,563,ls),
(206,641,o),
(248,685,o),
(323,685,cs),
(371,685,l),
(371,750,l),
(323,750,ls),
(203,750,o),
(136,683,o),
(136,563,cs),
(136,550,l),
(24,550,l),
(24,485,l),
(136,485,l),
(136,0,l)
);
}
);
width = 371;
},
{
layerId = m002;
shapes = (
{
closed = 1;
nodes = (
(237,0,l),
(237,435,l),
(311,435,l),
(311,550,l),
(237,550,l),
(237,563,ls),
(237,609,o),
(261,635,o),
(304,635,cs),
(352,635,l),
(352,750,l),
(304,750,ls),
(152,750,o),
(67,683,o),
(67,563,cs),
(67,550,l),
(5,550,l),
(5,435,l),
(67,435,l),
(67,0,l)
);
}
);
width = 332;
}
);
unicode = 102;
},
{
glyphname = g;
lastChange = "2023-11-05 21:00:06 +0000";
layers = (
{
layerId = m01;
shapes = (
{
closed = 1;
nodes = (
(446,-215,o),
(523,-137,o),
(523,3,cs),
(523,550,l),
(453,550,l),
(453,514,l),
(412,547,o),
(360,566,o),
(307,566,cs),
(158,566,o),
(75,469,o),
(75,295,cs),
(75,126,o),
(158,32,o),
(307,32,cs),
(368,32,o),
(421,47,o),
(453,73,c),
(453,3,ls),
(453,-92,o),
(401,-145,o),
(307,-145,cs),
(222,-145,o),
(172,-106,o),
(167,-37,c),
(97,-37,l),
(100,-151,o),
(175,-215,o),
(307,-215,cs)
);
},
{
closed = 1;
nodes = (
(203,97,o),
(145,168,o),
(145,295,cs),
(145,424,o),
(203,496,o),
(307,496,cs),
(360,496,o),
(413,476,o),
(453,441,c),
(453,146,l),
(423,115,o),
(370,97,o),
(307,97,cs)
);
}
);
width = 608;
},
{
layerId = m002;
shapes = (
{
closed = 1;
nodes = (
(478,-215,o),
(573,-137,o),
(573,3,cs),
(573,550,l),
(403,550,l),
(403,514,l),
(380,547,o),
(335,566,o),
(277,566,cs),
(115,566,o),
(25,469,o),
(25,295,cs),
(25,126,o),
(115,32,o),
(277,32,cs),
(346,32,o),
(391,47,o),
(403,73,c),
(403,3,ls),
(403,-60,o),
(369,-95,o),
(307,-95,cs),
(252,-95,o),
(220,-74,o),
(217,-37,c),
(47,-37,l),
(50,-151,o),
(143,-215,o),
(307,-215,cs)
);
},
{
closed = 1;
nodes = (
(235,147,o),
(195,200,o),
(195,295,cs),
(195,392,o),
(235,446,o),
(307,446,cs),
(349,446,o),
(383,426,o),
(403,391,c),
(403,196,l),
(393,165,o),
(359,147,o),
(307,147,cs)
);
}
);
width = 618;
}
);
unicode = 103;
},
{
glyphname = h;
lastChange = "2023-11-05 21:00:06 +0000";
layers = (
{
layerId = m01;
shapes = (
{
closed = 1;
nodes = (
(156,0,l),
(156,413,l),
(190,470,o),
(249,501,o),
(323,501,cs),
(401,501,o),
(444,446,o),
(444,348,cs),
(444,0,l),
(514,0,l),
(514,348,ls),
(514,488,o),
(446,566,o),
(323,566,cs),
(244,566,o),
(184,540,o),
(156,494,c),
(156,750,l),
(86,750,l),
(86,0,l)
);
}
);
width = 600;
},
{
background = {
shapes = (
{
closed = 1;
nodes = (
(215,0,l),
(215,373,l),
(245,423,o),
(287,451,o),
(332,451,cs),
(378,451,o),
(403,428,o),
(403,388,cs),
(403,0,l),
(573,0,l),
(573,388,ls),
(573,502,o),
(505,566,o),
(382,566,cs),
(318,566,o),
(258,526,o),
(215,454,c),
(215,551,l),
(45,551,l),
(45,0,l)
);
}
);
};
layerId = m002;
shapes = (
{
closed = 1;
nodes = (
(215,0,l),
(215,373,l),
(245,423,o),
(287,451,o),
(332,451,cs),
(378,451,o),
(403,428,o),
(403,388,cs),
(403,0,l),
(573,0,l),
(573,388,ls),
(573,502,o),
(507,566,o),
(387,566,cs),
(320,566,o),
(259,526,o),
(215,454,c),
(215,750,l),
(45,750,l),
(45,0,l)
);
}
);
width = 618;
}
);
unicode = 104;
},
{
glyphname = i;
lastChange = "2023-11-05 21:00:06 +0000";
layers = (
{
layerId = m01;
shapes = (
{
closed = 1;
nodes = (
(176,0,l),
(176,550,l),
(106,550,l),
(106,0,l)
);
},
{
closed = 1;
nodes = (
(172,643,o),
(197,668,o),
(197,699,cs),
(197,729,o),
(172,754,o),
(142,754,cs),
(111,754,o),
(86,729,o),
(86,699,cs),
(86,668,o),
(111,643,o),
(142,643,cs)
);
}
);
width = 283;
},
{
layerId = m002;
shapes = (
{
closed = 1;
nodes = (
(225,0,l),
(225,550,l),
(55,550,l),
(55,0,l)
);
},
{
closed = 1;
nodes = (
(197,603,o),
(236,643,o),
(236,699,cs),
(236,755,o),
(197,794,o),
(141,794,cs),
(85,794,o),
(45,755,o),
(45,699,cs),
(45,643,o),
(85,603,o),
(141,603,cs)
);
}
);
width = 281;
}
);
unicode = 105;
},
{
glyphname = idotless;
lastChange = "2023-11-05 21:00:06 +0000";
layers = (
{
layerId = m01;
shapes = (
{
closed = 1;
nodes = (
(176,0,l),
(176,550,l),
(106,550,l),
(106,0,l)
);
}
);
width = 282;
},
{
layerId = m002;
shapes = (
{
closed = 1;
nodes = (
(176,0,l),
(176,550,l),
(106,550,l),
(106,0,l)
);
}
);
width = 282;
}
);
unicode = 305;
},
{
glyphname = ij;
lastChange = "2023-11-05 21:00:06 +0000";
layers = (
{
layerId = m01;
shapes = (
{
closed = 1;
nodes = (
(325,-216,o),
(370,-168,o),
(370,-83,cs),
(370,0,l),
(369,0,l),
(369,550,l),
(299,550,l),
(299,0,l),
(300,0,l),
(300,-83,ls),
(300,-123,o),
(280,-146,o),
(244,-146,c),
(244,-216,l)
);
},
{
ref = i;
},
{
closed = 1;
nodes = (
(371,643,o),
(390,663,o),
(390,699,cs),
(390,735,o),
(371,754,o),
(335,754,cs),
(299,754,o),
(279,735,o),
(279,699,cs),
(279,663,o),
(299,643,o),
(335,643,cs)
);
}
);
width = 476;
},
{
layerId = m002;
shapes = (
{
closed = 1;
nodes = (
(325,-216,o),
(370,-168,o),
(370,-83,cs),
(370,0,l),
(369,0,l),
(369,550,l),
(299,550,l),
(299,0,l),
(300,0,l),
(300,-83,ls),
(300,-123,o),
(280,-146,o),
(244,-146,c),
(244,-216,l)
);
},
{
ref = i;
},
{
closed = 1;
nodes = (
(371,643,o),
(390,663,o),
(390,699,cs),
(390,735,o),
(371,754,o),
(335,754,cs),
(299,754,o),
(279,735,o),
(279,699,cs),
(279,663,o),
(299,643,o),
(335,643,cs)
);
}
);
width = 476;
}
);
unicode = 307;
},
{
glyphname = j;
lastChange = "2023-11-05 21:00:06 +0000";
layers = (
{
layerId = m01;
shapes = (
{
closed = 1;
nodes = (
(125,-216,o),
(170,-168,o),
(170,-83,cs),
(170,0,l),
(169,0,l),
(169,550,l),
(99,550,l),
(99,0,l),
(100,0,l),
(100,-83,ls),
(100,-123,o),
(80,-146,o),
(44,-146,c),
(44,-216,l)
);
},
{
closed = 1;
nodes = (
(166,643,o),
(190,668,o),
(190,699,cs),
(190,730,o),
(166,754,o),
(135,754,cs),
(104,754,o),
(79,730,o),
(79,699,cs),
(79,668,o),
(104,643,o),
(135,643,cs)
);
}
);
width = 273;
},
{
layerId = m002;
shapes = (
{
closed = 1;
nodes = (
(81,-216,o),
(226,-118,o),
(226,-33,cs),
(226,50,l),
(225,50,l),
(225,550,l),
(55,550,l),
(55,50,l),
(56,50,l),
(56,-33,ls),
(56,-73,o),
(36,-96,o),
(0,-96,c),
(0,-216,l)
);
},
{
closed = 1;
nodes = (
(194,603,o),
(233,643,o),
(233,699,cs),
(233,755,o),
(194,794,o),
(138,794,cs),
(82,794,o),
(42,755,o),
(42,699,cs),
(42,643,o),
(82,603,o),
(138,603,cs)
);
}
);
width = 278;
}
);
unicode = 106;
},
{
glyphname = jdotless;
lastChange = "2023-11-05 21:00:06 +0000";
layers = (
{
layerId = m01;
shapes = (
{
closed = 1;
nodes = (
(125,-216,o),
(170,-168,o),
(170,-83,cs),
(170,0,l),
(169,0,l),
(169,550,l),
(99,550,l),
(99,0,l),
(100,0,l),
(100,-83,ls),
(100,-123,o),
(80,-146,o),
(44,-146,c),
(44,-216,l)
);
}
);
width = 253;
},
{
layerId = m002;
shapes = (
{
closed = 1;
nodes = (
(125,-216,o),
(170,-168,o),
(170,-83,cs),
(170,0,l),
(169,0,l),
(169,550,l),
(99,550,l),
(99,0,l),
(100,0,l),
(100,-83,ls),
(100,-123,o),
(80,-146,o),
(44,-146,c),
(44,-216,l)
);
}
);
width = 253;
}
);
unicode = 567;
},
{
glyphname = k;
lastChange = "2023-11-05 21:00:06 +0000";
layers = (
{
layerId = m01;
shapes = (
{
closed = 1;
nodes = (
(156,0,l),
(156,299,l),
(418,0,l),
(518,0,l),
(249,301,l),
(526,550,l),
(416,550,l),
(156,303,l),
(156,750,l),
(86,750,l),
(86,0,l)
);
}
);
width = 538;
},
{
layerId = m002;
shapes = (
{
closed = 1;
nodes = (
(215,0,l),
(215,282,l),
(427,0,l),
(627,0,l),
(398,301,l),
(625,550,l),
(415,550,l),
(215,329,l),
(215,750,l),
(45,750,l),
(45,0,l)
);
}
);
width = 627;
}
);
unicode = 107;
},
{
glyphname = l;
lastChange = "2023-11-05 21:00:06 +0000";
layers = (
{
layerId = m01;
shapes = (
{
closed = 1;
nodes = (
(156,0,l),
(156,750,l),
(86,750,l),
(86,0,l)
);
}
);
width = 242;
},
{
layerId = m002;
shapes = (
{
closed = 1;
nodes = (
(215,0,l),
(215,750,l),
(45,750,l),
(45,0,l)
);
}
);
width = 260;
}
);
unicode = 108;
},
{
glyphname = m;
lastChange = "2023-11-05 21:00:06 +0000";
layers = (
{
layerId = m01;
shapes = (
{
closed = 1;
nodes = (
(156,0,l),
(156,373,l),
(205,455,o),
(266,500,o),
(327,500,cs),
(402,500,o),
(444,457,o),
(444,380,cs),
(444,0,l),
(514,0,l),
(514,373,l),
(563,455,o),
(624,500,o),
(685,500,cs),
(760,500,o),
(802,457,o),
(802,380,cs),
(802,0,l),
(872,0,l),
(872,380,ls),
(872,499,o),
(805,565,o),
(685,565,cs),
(612,565,o),
(551,526,o),
(514,456,cs),
(506,441,l),
(485,521,o),
(421,565,o),
(327,565,cs),
(260,565,o),
(199,525,o),
(156,454,c),
(156,551,l),
(86,551,l),
(86,0,l)
);
}
);
width = 958;
},
{
background = {
shapes = (
{
closed = 1;
nodes = (
(215,0,l),
(215,373,l),
(245,423,o),
(287,451,o),
(332,451,cs),
(378,451,o),
(403,428,o),
(403,388,cs),
(403,0,l),
(573,0,l),
(573,388,ls),
(573,502,o),
(505,566,o),
(382,566,cs),
(318,566,o),
(258,526,o),
(215,454,c),
(215,551,l),
(45,551,l),
(45,0,l)
);
}
);
};
layerId = m002;
shapes = (
{
closed = 1;
nodes = (
(215,0,l),
(215,373,l),
(244,421,o),
(287,448,o),
(336,448,cs),
(379,448,o),
(403,424,o),
(403,380,cs),
(403,0,l),
(573,0,l),
(573,373,l),
(602,421,o),
(645,448,o),
(694,448,cs),
(737,448,o),
(761,424,o),
(761,380,cs),
(761,0,l),
(931,0,l),
(931,380,ls),
(931,500,o),
(864,566,o),
(744,566,cs),
(673,566,o),
(612,526,o),
(573,454,cs),
(567,443,l),
(546,522,o),
(482,566,o),
(386,566,cs),
(319,566,o),
(258,526,o),
(215,454,c),
(215,551,l),
(45,551,l),
(45,0,l)
);
}
);
width = 976;
}
);
unicode = 109;
},
{
glyphname = n;
lastChange = "2023-11-05 21:00:06 +0000";
layers = (
{
background = {
shapes = (
{
closed = 1;
nodes = (
(156,0,l),
(156,373,l),
(205,455,o),
(265,501,o),
(323,501,cs),
(401,501,o),
(444,461,o),
(444,388,cs),
(444,0,l),
(514,0,l),
(514,388,ls),
(514,502,o),
(446,566,o),
(323,566,cs),
(259,566,o),
(199,526,o),
(156,454,c),
(156,551,l),
(86,551,l),
(86,0,l)
);
}
);
};
layerId = m01;
shapes = (
{
closed = 1;
nodes = (
(156,0,l),
(156,373,l),
(205,455,o),
(265,501,o),
(323,501,cs),
(401,501,o),
(444,461,o),
(444,388,cs),
(444,0,l),
(514,0,l),
(514,388,ls),
(514,502,o),
(446,566,o),
(323,566,cs),
(259,566,o),
(199,526,o),
(156,454,c),
(156,551,l),
(86,551,l),
(86,0,l)
);
}
);
width = 600;
},
{
background = {
shapes = (
{
closed = 1;
nodes = (
(165,0,l),
(165,373,l),
(214,455,o),
(274,501,o),
(332,501,cs),
(410,501,o),
(453,461,o),
(453,388,cs),
(453,0,l),
(523,0,l),
(523,388,ls),
(523,502,o),
(455,566,o),
(332,566,cs),
(268,566,o),
(208,526,o),
(165,454,c),
(165,551,l),
(95,551,l),
(95,0,l)
);
}
);
};
layerId = m002;
shapes = (
{
closed = 1;
nodes = (
(215,0,l),
(215,373,l),
(245,423,o),
(287,451,o),
(332,451,cs),
(378,451,o),
(403,428,o),
(403,388,cs),
(403,0,l),
(573,0,l),
(573,388,ls),
(573,502,o),
(505,566,o),
(382,566,cs),
(318,566,o),
(258,526,o),
(215,454,c),
(215,551,l),
(45,551,l),
(45,0,l)
);
}
);
width = 618;
}
);
unicode = 110;
},
{
glyphname = o;
lastChange = "2023-11-05 21:00:06 +0000";
layers = (
{
layerId = m01;
shapes = (
{
closed = 1;
nodes = (
(452,-16,o),
(536,89,o),
(536,277,cs),
(536,463,o),
(452,566,o),
(300,566,cs),
(148,566,o),
(64,466,o),
(64,285,cs),
(64,92,o),
(148,-16,o),
(300,-16,cs)
);
},
{
closed = 1;
nodes = (
(193,49,o),
(134,133,o),
(134,285,cs),
(134,424,o),
(193,501,o),
(300,501,cs),
(407,501,o),
(466,421,o),
(466,277,cs),
(466,130,o),
(407,49,o),
(300,49,cs)
);
}
);
width = 600;
},
{
layerId = m002;
shapes = (
{
closed = 1;
nodes = (
(469,-16,o),
(587,105,o),
(587,277,cs),
(587,446,o),
(469,566,o),
(301,566,cs),
(133,566,o),
(15,450,o),
(15,285,cs),
(15,109,o),
(133,-16,o),
(301,-16,cs)
);
},
{
closed = 1;
nodes = (
(226,99,o),
(185,165,o),
(185,285,cs),
(185,392,o),
(226,451,o),
(301,451,cs),
(376,451,o),
(417,389,o),
(417,277,cs),
(417,163,o),
(376,99,o),
(301,99,cs)
);
}
);
width = 612;
}
);
unicode = 111;
},
{
glyphname = oslash;
lastChange = "2023-11-05 21:00:06 +0000";
layers = (
{
layerId = m01;
shapes = (
{
closed = 1;
nodes = (
(119,0,l),
(556,550,l),
(481,550,l),
(44,0,l)
);
},
{
ref = o;
}
);
width = 600;
},
{
layerId = m002;
shapes = (
{
closed = 1;
nodes = (
(119,0,l),
(556,550,l),
(481,550,l),
(44,0,l)
);
},
{
ref = o;
}
);
width = 600;
}
);
unicode = 248;
},
{
glyphname = oe;
lastChange = "2023-11-05 21:00:06 +0000";
layers = (
{
layerId = m01;
shapes = (
{
closed = 1;
nodes = (
(434,-13,o),
(532,108,o),
(532,279,cs),
(532,445,o),
(434,562,o),
(296,562,cs),
(158,562,o),
(60,448,o),
(60,287,cs),
(60,111,o),
(158,-13,o),
(296,-13,cs)
);
},
{
closed = 1;
nodes = (
(189,52,o),
(130,136,o),
(130,287,cs),
(130,422,o),
(189,497,o),
(296,497,cs),
(403,497,o),
(462,419,o),
(462,279,cs),
(462,133,o),
(403,52,o),
(296,52,cs)
);
},
{
closed = 1;
nodes = (
(784,-16,o),
(854,10,o),
(901,57,c),
(865,110,l),
(826,71,o),
(768,49,o),
(704,49,cs),
(610,49,o),
(551,121,o),
(540,250,c),
(876,245,l),
(914,275,l),
(909,458,o),
(834,560,o),
(704,560,cs),
(559,560,o),
(478,460,o),
(478,280,cs),
(478,90,o),
(559,-16,o),
(704,-16,cs)
);
},
{
closed = 1;
nodes = (
(544,425,o),
(604,495,o),
(704,495,cs),
(785,495,o),
(835,427,o),
(843,305,c),
(538,300,l)
);
}
);
width = 978;
},
{
layerId = m002;
shapes = (
{
closed = 1;
nodes = (
(434,-13,o),
(532,108,o),
(532,279,cs),
(532,445,o),
(434,562,o),
(296,562,cs),
(158,562,o),
(60,448,o),
(60,287,cs),
(60,111,o),
(158,-13,o),
(296,-13,cs)
);
},
{
closed = 1;
nodes = (
(189,52,o),
(130,136,o),
(130,287,cs),
(130,422,o),
(189,497,o),
(296,497,cs),
(403,497,o),
(462,419,o),
(462,279,cs),
(462,133,o),
(403,52,o),
(296,52,cs)
);
},
{
closed = 1;
nodes = (
(784,-16,o),
(854,10,o),
(901,57,c),
(865,110,l),
(826,71,o),
(768,49,o),
(704,49,cs),
(610,49,o),
(551,121,o),
(540,250,c),
(876,245,l),
(914,275,l),
(909,458,o),
(834,560,o),
(704,560,cs),
(559,560,o),
(478,460,o),
(478,280,cs),
(478,90,o),
(559,-16,o),
(704,-16,cs)
);
},
{
closed = 1;
nodes = (
(544,425,o),
(604,495,o),
(704,495,cs),
(785,495,o),
(835,427,o),
(843,305,c),
(538,300,l)
);
}
);
width = 978;
}
);
unicode = 339;
},
{
glyphname = p;
lastChange = "2023-11-05 21:00:06 +0000";
layers = (
{
layerId = m01;
shapes = (
{
closed = 1;
nodes = (
(156,-200,l),
(156,26,l),
(186,-1,o),
(239,-16,o),
(303,-16,cs),
(451,-16,o),
(534,86,o),
(534,270,cs),
(534,460,o),
(451,566,o),
(303,566,cs),
(257,566,o),
(205,547,o),
(156,514,c),
(156,550,l),
(86,550,l),
(86,-200,l)
);
},
{
closed = 1;
nodes = (
(242,49,o),
(189,70,o),
(156,107,c),
(156,443,l),
(198,480,o),
(251,501,o),
(303,501,cs),
(406,501,o),
(464,418,o),
(464,270,cs),
(464,128,o),
(406,49,o),
(303,49,cs)
);
}
);
width = 598;
},
{
layerId = m002;
shapes = (
{
closed = 1;
nodes = (
(215,-200,l),
(215,26,l),
(245,-1,o),
(298,-16,o),
(362,-16,cs),
(510,-16,o),
(593,86,o),
(593,270,cs),
(593,460,o),
(510,566,o),
(362,566,cs),
(318,566,o),
(266,547,o),
(215,514,c),
(215,550,l),
(45,550,l),
(45,-200,l)
);
},
{
closed = 1;
nodes = (
(266,99,o),
(231,109,o),
(215,127,c),
(215,413,l),
(243,437,o),
(278,451,o),
(312,451,cs),
(383,451,o),
(423,386,o),
(423,270,cs),
(423,160,o),
(383,99,o),
(312,99,cs)
);
}
);
width = 618;
}
);
unicode = 112;
},
{
glyphname = thorn;
lastChange = "2023-11-05 21:00:06 +0000";
layers = (
{
layerId = m01;
shapes = (
{
closed = 1;
nodes = (
(156,-200,l),
(156,36,l),
(184,3,o),
(238,-15,o),
(308,-15,cs),
(453,-15,o),
(534,90,o),
(534,280,cs),
(534,464,o),
(453,566,o),
(308,566,cs),
(254,566,o),
(199,549,o),
(156,519,c),
(156,750,l),
(86,750,l),
(86,-200,l)
);
},
{
closed = 1;
nodes = (
(249,50,o),
(195,70,o),
(156,107,c),
(156,458,l),
(199,486,o),
(254,501,o),
(308,501,cs),
(408,501,o),
(464,422,o),
(464,280,cs),
(464,132,o),
(408,50,o),
(308,50,cs)
);
}
);
width = 598;
},
{
layerId = m002;
shapes = (
{
closed = 1;
nodes = (
(156,-200,l),
(156,36,l),
(184,3,o),
(238,-15,o),
(308,-15,cs),
(453,-15,o),
(534,90,o),
(534,280,cs),
(534,464,o),
(453,566,o),
(308,566,cs),
(254,566,o),
(199,549,o),
(156,519,c),
(156,750,l),
(86,750,l),
(86,-200,l)
);
},
{
closed = 1;
nodes = (
(249,50,o),
(195,70,o),
(156,107,c),
(156,458,l),
(199,486,o),
(254,501,o),
(308,501,cs),
(408,501,o),
(464,422,o),
(464,280,cs),
(464,132,o),
(408,50,o),
(308,50,cs)
);
}
);
width = 598;
}
);
unicode = 254;
},
{
glyphname = q;
lastChange = "2023-11-05 21:00:06 +0000";
layers = (
{
layerId = m01;
shapes = (
{
closed = 1;
nodes = (
(514,-200,l),
(514,550,l),
(444,550,l),
(444,514,l),
(397,547,o),
(344,566,o),
(297,566,cs),
(149,566,o),
(66,460,o),
(66,270,cs),
(66,87,o),
(149,-14,o),
(297,-14,cs),
(355,-14,o),
(408,4,o),
(444,36,c),
(444,-200,l)
);
},
{
closed = 1;
nodes = (
(194,51,o),
(136,129,o),
(136,270,cs),
(136,418,o),
(194,501,o),
(297,501,cs),
(359,501,o),
(412,482,o),
(444,448,c),
(444,107,l),
(407,71,o),
(355,51,o),
(297,51,cs)
);
}
);
width = 600;
},
{
layerId = m002;
shapes = (
{
closed = 1;
nodes = (
(573,-200,l),
(573,550,l),
(403,550,l),
(403,514,l),
(355,547,o),
(303,566,o),
(256,566,cs),
(108,566,o),
(25,460,o),
(25,270,cs),
(25,87,o),
(108,-14,o),
(256,-14,cs),
(314,-14,o),
(367,4,o),
(403,36,c),
(403,-200,l)
);
},
{
closed = 1;
nodes = (
(235,101,o),
(195,161,o),
(195,270,cs),
(195,380,o),
(235,441,o),
(306,441,cs),
(354,441,o),
(388,433,o),
(403,418,c),
(403,127,l),
(386,110,o),
(352,101,o),
(306,101,cs)
);
}
);
width = 618;
}
);
unicode = 113;
},
{
glyphname = r;
lastChange = "2023-11-05 21:00:06 +0000";
layers = (
{
layerId = m01;
shapes = (
{
closed = 1;
nodes = (
(156,0,l),
(156,363,l),
(192,448,o),
(261,495,o),
(347,495,c),
(347,565,l),
(257,565,o),
(189,525,o),
(156,454,c),
(156,551,l),
(86,551,l),
(86,0,l)
);
}
);
width = 347;
},
{
layerId = m002;
shapes = (
{
closed = 1;
nodes = (
(215,0,l),
(215,313,l),
(243,379,o),
(313,415,o),
(376,415,c),
(376,565,l),
(319,565,o),
(248,525,o),
(215,454,c),
(215,551,l),
(45,551,l),
(45,0,l)
);
}
);
width = 376;
}
);
unicode = 114;
},
{
glyphname = s;
lastChange = "2023-11-05 21:00:06 +0000";
layers = (
{
layerId = m01;
shapes = (
{
closed = 1;
nodes = (
(410,-15,o),
(485,45,o),
(485,153,cs),
(485,363,o),
(145,258,o),
(145,398,cs),
(145,464,o),
(191,501,o),
(275,501,cs),
(353,501,o),
(398,461,o),
(401,388,c),
(471,388,l),
(466,502,o),
(396,566,o),
(275,566,cs),
(146,566,o),
(75,506,o),
(75,398,cs),
(75,178,o),
(415,303,o),
(415,153,cs),
(415,87,o),
(365,50,o),
(275,50,cs),
(191,50,o),
(142,87,o),
(139,153,c),
(69,153,l),
(74,45,o),
(148,-15,o),
(275,-15,cs)
);
}
);
width = 554;
},
{
layerId = m002;
shapes = (
{
closed = 1;
nodes = (
(396,-15,o),
(480,45,o),
(480,153,cs),
(480,363,o),
(184,308,o),
(184,398,cs),
(184,432,o),
(206,451,o),
(246,451,cs),
(282,451,o),
(303,428,o),
(304,388,c),
(468,388,l),
(463,502,o),
(384,566,o),
(246,566,cs),
(101,566,o),
(20,506,o),
(20,398,cs),
(20,178,o),
(317,253,o),
(317,153,cs),
(317,119,o),
(292,100,o),
(246,100,cs),
(204,100,o),
(180,119,o),
(178,153,c),
(15,153,l),
(20,45,o),
(103,-15,o),
(246,-15,cs)
);
}
);
width = 495;
}
);
unicode = 115;
},
{
glyphname = germandbls;
lastChange = "2023-11-05 21:00:06 +0000";
layers = (
{
layerId = m01;
shapes = (
{
closed = 1;
nodes = (
(437,-16,o),
(505,48,o),
(505,163,cs),
(505,303,o),
(335,278,o),
(335,348,cs),
(335,418,o),
(472,402,o),
(472,542,cs),
(472,653,o),
(405,714,o),
(285,714,cs),
(157,714,o),
(86,656,o),
(86,553,cs),
(86,0,l),
(156,0,l),
(156,553,ls),
(156,615,o),
(202,649,o),
(285,649,cs),
(360,649,o),
(402,611,o),
(402,542,cs),
(402,441,o),
(265,478,o),
(265,348,cs),
(265,218,o),
(435,243,o),
(435,163,cs),
(435,90,o),
(392,49,o),
(314,49,cs),
(280,49,o),
(248,62,o),
(226,84,c),
(226,14,l),
(245,-5,o),
(277,-16,o),
(314,-16,cs)
);
}
);
width = 569;
},
{
layerId = m002;
shapes = (
{
closed = 1;
nodes = (
(478,-16,o),
(564,48,o),
(564,163,cs),
(564,303,o),
(394,278,o),
(394,348,cs),
(394,418,o),
(531,402,o),
(531,542,cs),
(531,653,o),
(446,714,o),
(294,714,cs),
(134,714,o),
(45,656,o),
(45,553,cs),
(45,0,l),
(215,0,l),
(215,553,ls),
(215,583,o),
(243,599,o),
(294,599,cs),
(337,599,o),
(361,579,o),
(361,542,cs),
(361,441,o),
(244,478,o),
(244,348,cs),
(244,218,o),
(394,243,o),
(394,163,cs),
(394,122,o),
(369,99,o),
(323,99,cs),
(295,99,o),
(271,108,o),
(255,124,c),
(255,4,l),
(268,-9,o),
(292,-16,o),
(323,-16,cs)
);
}
);
width = 589;
}
);
unicode = 223;
},
{
glyphname = t;
lastChange = "2023-11-05 21:00:06 +0000";
layers = (
{
layerId = m01;
shapes = (
{
closed = 1;
nodes = (
(318,0,l),
(318,65,l),
(264,65,ls),
(225,65,o),
(203,83,o),
(203,115,cs),
(203,485,l),
(287,485,l),
(287,550,l),
(203,550,l),
(203,678,l),
(133,678,l),
(133,550,l),
(51,550,l),
(51,485,l),
(133,485,l),
(133,115,ls),
(133,41,o),
(180,0,o),
(264,0,cs)
);
}
);
width = 367;
},
{
layerId = m002;
shapes = (
{
closed = 1;
nodes = (
(367,0,l),
(367,115,l),
(313,115,ls),
(274,115,o),
(252,133,o),
(252,165,cs),
(252,435,l),
(336,435,l),
(336,550,l),
(252,550,l),
(252,678,l),
(82,678,l),
(82,550,l),
(0,550,l),
(0,435,l),
(82,435,l),
(82,115,ls),
(82,41,o),
(179,0,o),
(263,0,cs)
);
}
);
width = 367;
}
);
unicode = 116;
},
{
glyphname = u;
lastChange = "2023-11-05 21:00:06 +0000";
layers = (
{
layerId = m01;
shapes = (
{
closed = 1;
nodes = (
(352,-15,o),
(408,11,o),
(444,58,c),
(444,1,l),
(514,1,l),
(514,552,l),
(444,552,l),
(444,139,l),
(399,82,o),
(343,50,o),
(288,50,cs),
(203,50,o),
(156,94,o),
(156,172,cs),
(156,552,l),
(86,552,l),
(86,172,ls),
(86,52,o),
(158,-15,o),
(288,-15,cs)
);
}
);
width = 600;
},
{
background = {
shapes = (
{
closed = 1;
nodes = (
(403,551,l),
(403,188,l),
(369,131,o),
(327,100,o),
(286,100,cs),
(240,100,o),
(215,140,o),
(215,213,cs),
(215,551,l),
(45,551,l),
(45,163,ls),
(45,49,o),
(117,-15,o),
(246,-15,cs),
(316,-15,o),
(372,14,o),
(403,67,c),
(403,0,l),
(573,0,l),
(573,551,l)
);
}
);
};
layerId = m002;
shapes = (
{
closed = 1;
nodes = (
(316,-16,o),
(372,14,o),
(403,67,c),
(403,0,l),
(573,0,l),
(573,551,l),
(403,551,l),
(403,188,l),
(368,131,o),
(325,99,o),
(282,99,cs),
(239,99,o),
(215,143,o),
(215,221,cs),
(215,551,l),
(45,551,l),
(45,161,ls),
(45,47,o),
(118,-16,o),
(248,-16,cs)
);
}
);
width = 618;
}
);
unicode = 117;
},
{
glyphname = v;
lastChange = "2023-11-05 21:00:06 +0000";
layers = (
{
layerId = m01;
shapes = (
{
closed = 1;
nodes = (
(314,0,l),
(515,550,l),
(440,550,l),
(280,92,l),
(110,550,l),
(35,550,l),
(248,0,l)
);
}
);
width = 550;
},
{
layerId = m002;
shapes = (
{
closed = 1;
nodes = (
(374,0,l),
(575,550,l),
(390,550,l),
(290,192,l),
(170,550,l),
(-15,550,l),
(198,0,l)
);
}
);
width = 570;
}
);
unicode = 118;
},
{
glyphname = w;
lastChange = "2023-11-05 21:00:06 +0000";
layers = (
{
layerId = m01;
shapes = (
{
closed = 1;
nodes = (
(260,0,l),
(378,403,l),
(503,0,l),
(565,0,l),
(720,550,l),
(647,550,l),
(533,116,l),
(402,550,l),
(353,550,l),
(228,116,l),
(108,550,l),
(35,550,l),
(198,0,l)
);
}
);
width = 755;
},
{
background = {
shapes = (
{
closed = 1;
nodes = (
(374,0,l),
(575,550,l),
(390,550,l),
(290,192,l),
(170,550,l),
(-15,550,l),
(198,0,l)
);
}
);
};
layerId = m002;
shapes = (
{
closed = 1;
nodes = (
(335,0,l),
(431,297,l),
(536,0,l),
(693,0,l),
(873,550,l),
(707,550,l),
(617,192,l),
(507,550,l),
(352,550,l),
(259,192,l),
(151,550,l),
(-15,550,l),
(177,0,l)
);
}
);
width = 858;
}
);
unicode = 119;
},
{
glyphname = x;
lastChange = "2023-11-05 21:00:06 +0000";
layers = (
{
layerId = m01;
shapes = (
{
closed = 1;
nodes = (
(120,0,l),
(257,234,l),
(404,0,l),
(486,0,l),
(306,284,l),
(484,550,l),
(400,550,l),
(267,341,l),
(125,550,l),
(40,550,l),
(217,296,l),
(38,0,l)
);
}
);
width = 524;
},
{
background = {
shapes = (
{
closed = 1;
nodes = (
(375,0,l),
(576,550,l),
(391,550,l),
(291,192,l),
(171,550,l),
(-14,550,l),
(199,0,l)
);
},
{
closed = 1;
nodes = (
(-14,0,l),
(171,0,l),
(291,358,l),
(391,0,l),
(576,0,l),
(375,550,l),
(199,550,l)
);
}
);
};
layerId = m002;
shapes = (
{
closed = 1;
nodes = (
(170,0,l),
(286,167,l),
(399,0,l),
(577,0,l),
(386,275,l),
(575,550,l),
(391,550,l),
(286,378,l),
(170,550,l),
(-15,550,l),
(194,275,l),
(-12,0,l)
);
}
);
width = 562;
}
);
unicode = 120;
},
{
glyphname = y;
lastChange = "2023-11-05 21:00:06 +0000";
layers = (
{
layerId = m01;
shapes = (
{
closed = 1;
nodes = (
(191,-200,o),
(247,-154,o),
(281,-72,cs),
(311,0,l),
(515,550,l),
(440,550,l),
(276,94,l),
(110,550,l),
(35,550,l),
(241,0,l),
(241,2,o),
(230,-23,o),
(211,-72,cs),
(194,-112,o),
(163,-135,o),
(125,-135,c),
(125,-200,l)
);
}
);
width = 550;
},
{
background = {
shapes = (
{
closed = 1;
nodes = (
(374,0,l),
(575,550,l),
(390,550,l),
(290,192,l),
(170,550,l),
(-15,550,l),
(198,0,l)
);
}
);
};
layerId = m002;
shapes = (
{
closed = 1;
nodes = (
(275,-200,o),
(322,-130,o),
(372,-5,cs),
(374,0,l),
(575,550,l),
(390,550,l),
(290,192,l),
(170,550,l),
(-15,550,l),
(198,0,l),
(198,2,o),
(198,0,o),
(198,0,c),
(171,-55,o),
(149,-85,o),
(69,-85,c),
(69,-200,l)
);
}
);
width = 570;
}
);
unicode = 121;
},
{
glyphname = z;
lastChange = "2023-11-05 21:00:06 +0000";
layers = (
{
layerId = m01;
shapes = (
{
closed = 1;
nodes = (
(450,0,l),
(450,65,l),
(161,65,l),
(466,550,l),
(60,550,l),
(60,485,l),
(343,485,l),
(38,0,l)
);
}
);
width = 516;
},
{
layerId = m002;
shapes = (
{
closed = 1;
nodes = (
(492,0,l),
(492,115,l),
(260,115,l),
(508,550,l),
(22,550,l),
(22,435,l),
(247,435,l),
(0,0,l)
);
}
);
width = 508;
}
);
unicode = 122;
},
{
glyphname = zero;
lastChange = "2023-11-05 21:00:06 +0000";
layers = (
{
layerId = m01;
shapes = (
{
closed = 1;
nodes = (
(438,-15,o),
(536,137,o),
(536,353,cs),
(536,566,o),
(438,716,o),
(300,716,cs),
(162,716,o),
(64,569,o),
(64,361,cs),
(64,141,o),
(162,-15,o),
(300,-15,cs)
);
},
{
closed = 1;
nodes = (
(193,50,o),
(134,161,o),
(134,361,cs),
(134,547,o),
(193,651,o),
(300,651,cs),
(407,651,o),
(466,545,o),
(466,353,cs),
(466,158,o),
(407,50,o),
(300,50,cs)
);
}
);
width = 600;
},
{
layerId = m002;
shapes = (
{
closed = 1;
nodes = (
(468,-15,o),
(586,137,o),
(586,353,cs),
(586,566,o),
(468,716,o),
(300,716,cs),
(132,716,o),
(14,569,o),
(14,361,cs),
(14,141,o),
(132,-15,o),
(300,-15,cs)
);
},
{
closed = 1;
nodes = (
(225,100,o),
(184,193,o),
(184,361,cs),
(184,515,o),
(225,601,o),
(300,601,cs),
(375,601,o),
(416,512,o),
(416,353,cs),
(416,190,o),
(375,100,o),
(300,100,cs)
);
}
);
width = 600;
}
);
unicode = 48;
},
{
glyphname = one;
lastChange = "2023-11-05 21:00:06 +0000";
layers = (
{
layerId = m01;
shapes = (
{
closed = 1;
nodes = (
(374,700,l),
(274,700,l),
(77,533,l),
(117,481,l)
);
},
{
closed = 1;
nodes = (
(374,0,l),
(374,700,l),
(304,700,l),
(304,0,l)
);
}
);
width = 600;
},
{
layerId = m002;
shapes = (
{
closed = 1;
nodes = (
(424,0,l),
(424,700,l),
(254,700,l),
(254,0,l)
);
},
{
closed = 1;
nodes = (
(374,700,l),
(224,700,l),
(27,483,l),
(117,431,l)
);
}
);
width = 600;
}
);
unicode = 49;
},
{
glyphname = two;
lastChange = "2023-11-05 21:00:06 +0000";
layers = (
{
layerId = m01;
shapes = (
{
closed = 1;
nodes = (
(135,0,l),
(135,209,o),
(500,290,o),
(500,523,cs),
(500,647,o),
(423,716,o),
(285,716,cs),
(205,716,o),
(135,690,o),
(88,643,c),
(128,591,l),
(167,630,o),
(223,651,o),
(285,651,cs),
(378,651,o),
(430,605,o),
(430,523,cs),
(430,338,o),
(65,249,o),
(65,0,c)
);
},
{
closed = 1;
nodes = (
(536,0,l),
(536,70,l),
(139,70,l),
(79,0,l)
);
}
);
width = 600;
},
{
layerId = m002;
shapes = (
{
closed = 1;
nodes = (
(205,0,l),
(215,209,o),
(550,240,o),
(550,473,cs),
(550,629,o),
(473,716,o),
(335,716,cs),
(224,716,o),
(125,690,o),
(58,643,c),
(108,551,l),
(156,583,o),
(219,601,o),
(285,601,cs),
(346,601,o),
(380,555,o),
(380,473,cs),
(380,288,o),
(65,249,o),
(65,0,c)
);
},
{
closed = 1;
nodes = (
(536,0,l),
(536,120,l),
(139,120,l),
(89,0,l)
);
}
);
width = 600;
}
);
unicode = 50;
},
{
glyphname = three;
lastChange = "2023-11-05 21:00:06 +0000";
layers = (
{
layerId = m01;
shapes = (
{
closed = 1;
nodes = (
(419,-15,o),
(496,58,o),
(496,188,cs),
(496,320,o),
(391,393,o),
(202,393,c),
(202,338,l),
(346,338,o),
(426,284,o),
(426,188,cs),
(426,99,o),
(374,50,o),
(281,50,cs),
(223,50,o),
(167,74,o),
(125,116,c),
(84,65,l),
(135,14,o),
(206,-15,o),
(281,-15,cs)
);
},
{
closed = 1;
nodes = (
(385,344,o),
(486,410,o),
(486,530,cs),
(486,650,o),
(413,716,o),
(281,716,cs),
(201,716,o),
(131,690,o),
(84,643,c),
(127,593,l),
(164,630,o),
(219,651,o),
(281,651,cs),
(368,651,o),
(416,608,o),
(416,530,cs),
(416,446,o),
(340,399,o),
(202,399,c),
(202,344,l)
);
}
);
width = 600;
},
{
layerId = m002;
shapes = (
{
closed = 1;
nodes = (
(458,-15,o),
(546,58,o),
(546,188,cs),
(546,333,o),
(423,413,o),
(202,413,c),
(202,308,l),
(314,308,o),
(376,265,o),
(376,188,cs),
(376,131,o),
(331,100,o),
(251,100,cs),
(180,100,o),
(117,124,o),
(75,166,c),
(34,65,l),
(85,14,o),
(181,-15,o),
(301,-15,cs)
);
},
{
closed = 1;
nodes = (
(417,324,o),
(536,398,o),
(536,530,cs),
(536,650,o),
(452,716,o),
(301,716,cs),
(176,716,o),
(81,690,o),
(34,643,c),
(77,543,l),
(114,580,o),
(176,601,o),
(251,601,cs),
(325,601,o),
(366,576,o),
(366,530,cs),
(366,465,o),
(307,429,o),
(202,429,c),
(202,324,l)
);
}
);
width = 600;
}
);
unicode = 51;
},
{
glyphname = four;
lastChange = "2023-11-05 21:00:06 +0000";
layers = (
{
layerId = m01;
shapes = (
{
closed = 1;
nodes = (
(103,150,l),
(453,700,l),
(376,700,l),
(26,150,l)
);
},
{
closed = 1;
nodes = (
(535,150,l),
(535,215,l),
(96,215,l),
(36,150,l)
);
},
{
closed = 1;
nodes = (
(456,0,l),
(456,700,l),
(386,700,l),
(386,0,l)
);
}
);
width = 600;
},
{
layerId = m002;
shapes = (
{
closed = 1;
nodes = (
(153,150,l),
(453,700,l),
(326,700,l),
(-24,150,l)
);
},
{
closed = 1;
nodes = (
(535,150,l),
(535,265,l),
(146,265,l),
(-14,150,l)
);
},
{
closed = 1;
nodes = (
(456,0,l),
(456,700,l),
(336,700,l),
(336,0,l)
);
}
);
width = 600;
}
);
unicode = 52;
},
{
glyphname = five;
lastChange = "2023-11-05 21:00:06 +0000";
layers = (
{
layerId = m01;
shapes = (
{
closed = 1;
nodes = (
(438,-14,o),
(531,82,o),
(531,218,cs),
(531,347,o),
(442,438,o),
(316,438,cs),
(265,438,o),
(190,417,o),
(135,388,c),
(130,311,l),
(180,347,o),
(257,373,o),
(316,373,cs),
(401,373,o),
(461,309,o),
(461,218,cs),
(461,120,o),
(397,51,o),
(306,51,cs),
(253,51,o),
(182,85,o),
(135,132,c),
(89,85,l),
(147,27,o),
(237,-14,o),
(306,-14,cs)
);
},
{
closed = 1;
nodes = (
(195,361,l),
(215,709,l),
(150,709,l),
(130,311,l)
);
},
{
closed = 1;
nodes = (
(487,644,l),
(487,709,l),
(150,709,l),
(210,644,l)
);
}
);
width = 600;
},
{
layerId = m002;
shapes = (
{
closed = 1;
nodes = (
(475,-14,o),
(581,70,o),
(581,203,cs),
(581,341,o),
(479,428,o),
(316,428,cs),
(262,428,o),
(192,409,o),
(135,378,c),
(130,251,l),
(183,289,o),
(255,313,o),
(316,313,cs),
(405,313,o),
(461,271,o),
(461,203,cs),
(461,140,o),
(401,101,o),
(306,101,cs),
(251,101,o),
(185,132,o),
(135,182,c),
(89,85,l),
(150,24,o),
(234,-14,o),
(306,-14,cs)
);
},
{
closed = 1;
nodes = (
(245,351,l),
(245,709,l),
(130,709,l),
(130,251,l)
);
},
{
closed = 1;
nodes = (
(517,594,l),
(517,709,l),
(130,709,l),
(190,594,l)
);
}
);
width = 600;
}
);
unicode = 53;
},
{
glyphname = six;
lastChange = "2023-11-05 21:00:06 +0000";
layers = (
{
layerId = m01;
shapes = (
{
closed = 1;
nodes = (
(447,-15,o),
(528,73,o),
(528,231,cs),
(528,360,o),
(447,431,o),
(302,431,cs),
(202,431,o),
(135,355,o),
(115,219,c),
(155,219,l),
(177,313,o),
(230,366,o),
(302,366,cs),
(402,366,o),
(458,318,o),
(458,231,cs),
(458,115,o),
(402,50,o),
(302,50,cs),
(200,50,o),
(143,162,o),
(143,363,cs),
(143,548,o),
(220,651,o),
(322,651,cs),
(383,651,o),
(416,631,o),
(450,596,c),
(494,645,l),
(445,691,o),
(397,716,o),
(322,716,cs),
(175,716,o),
(73,590,o),
(73,363,cs),
(73,120,o),
(155,-15,o),
(302,-15,cs)
);
}
);
width = 600;
},
{
layerId = m002;
shapes = (
{
closed = 1;
nodes = (
(479,-15,o),
(578,73,o),
(578,231,cs),
(578,379,o),
(479,461,o),
(302,461,cs),
(205,461,o),
(138,375,o),
(115,219,c),
(155,219,l),
(174,301,o),
(227,346,o),
(302,346,cs),
(370,346,o),
(408,305,o),
(408,231,cs),
(408,147,o),
(370,100,o),
(302,100,cs),
(232,100,o),
(193,194,o),
(193,363,cs),
(193,516,o),
(239,601,o),
(322,601,cs),
(402,601,o),
(466,581,o),
(500,546,c),
(544,645,l),
(495,691,o),
(416,716,o),
(322,716,cs),
(130,716,o),
(23,590,o),
(23,363,cs),
(23,120,o),
(123,-15,o),
(302,-15,cs)
);
}
);
width = 600;
}
);
unicode = 54;
},
{
glyphname = seven;
lastChange = "2023-11-05 21:00:06 +0000";
layers = (
{
layerId = m01;
shapes = (
{
closed = 1;
nodes = (
(220,0,l),
(550,701,l),
(478,701,l),
(148,0,l)
);
},
{
closed = 1;
nodes = (
(484,631,l),
(544,701,l),
(85,701,l),
(85,631,l)
);
}
);
width = 600;
},
{
layerId = m002;
shapes = (
{
closed = 1;
nodes = (
(270,0,l),
(550,701,l),
(428,701,l),
(148,0,l)
);
},
{
closed = 1;
nodes = (
(484,581,l),
(544,701,l),
(85,701,l),
(85,581,l)
);
}
);
width = 600;
}
);
unicode = 55;
},
{
glyphname = eight;
lastChange = "2023-11-05 21:00:06 +0000";
layers = (
{
layerId = m01;
shapes = (
{
closed = 1;
nodes = (
(420,-15,o),
(499,64,o),
(499,193,cs),
(499,442,o),
(134,328,o),
(134,523,cs),
(134,598,o),
(186,650,o),
(279,650,cs),
(375,650,o),
(420,715,o),
(279,715,cs),
(141,715,o),
(64,643,o),
(64,523,cs),
(64,264,o),
(429,388,o),
(429,193,cs),
(429,109,o),
(375,50,o),
(279,50,cs),
(185,50,o),
(140,-15,o),
(279,-15,cs)
);
},
{
closed = 1;
nodes = (
(422,-15,o),
(377,50,o),
(283,50,cs),
(187,50,o),
(133,109,o),
(133,193,cs),
(133,388,o),
(498,274,o),
(498,523,cs),
(498,643,o),
(421,715,o),
(283,715,cs),
(142,715,o),
(187,650,o),
(283,650,cs),
(376,650,o),
(428,598,o),
(428,523,cs),
(428,338,o),
(63,442,o),
(63,193,cs),
(63,64,o),
(142,-15,o),
(283,-15,cs)
);
}
);
width = 550;
},
{
layerId = m002;
shapes = (
{
closed = 1;
nodes = (
(420,-15,o),
(499,59,o),
(499,193,cs),
(499,442,o),
(184,328,o),
(184,523,cs),
(184,572,o),
(218,600,o),
(279,600,cs),
(375,600,o),
(420,715,o),
(279,715,cs),
(141,715,o),
(64,646,o),
(64,523,cs),
(64,264,o),
(379,388,o),
(379,193,cs),
(379,133,o),
(343,100,o),
(279,100,cs),
(185,100,o),
(140,-15,o),
(279,-15,cs)
);
},
{
closed = 1;
nodes = (
(422,-15,o),
(377,100,o),
(283,100,cs),
(219,100,o),
(183,133,o),
(183,193,cs),
(183,388,o),
(498,274,o),
(498,523,cs),
(498,646,o),
(421,715,o),
(283,715,cs),
(142,715,o),
(187,600,o),
(283,600,cs),
(344,600,o),
(378,572,o),
(378,523,cs),
(378,338,o),
(63,442,o),
(63,193,cs),
(63,59,o),
(142,-15,o),
(283,-15,cs)
);
}
);
width = 550;
}
);
unicode = 56;
},
{
glyphname = nine;
lastChange = "2023-11-05 21:00:06 +0000";
layers = (
{
layerId = m01;
shapes = (
{
closed = 1;
nodes = (
(446,-15,o),
(528,111,o),
(528,338,cs),
(528,581,o),
(446,716,o),
(299,716,cs),
(154,716,o),
(73,628,o),
(73,470,cs),
(73,341,o),
(154,270,o),
(299,270,cs),
(399,270,o),
(466,346,o),
(486,482,c),
(446,482,l),
(424,388,o),
(371,335,o),
(299,335,cs),
(199,335,o),
(143,383,o),
(143,470,cs),
(143,586,o),
(199,651,o),
(299,651,cs),
(401,651,o),
(458,539,o),
(458,338,cs),
(458,153,o),
(401,50,o),
(299,50,cs),
(238,50,o),
(185,70,o),
(151,105,c),
(107,56,l),
(156,10,o),
(224,-15,o),
(299,-15,cs)
);
}
);
width = 600;
},
{
layerId = m002;
shapes = (
{
closed = 1;
nodes = (
(471,-15,o),
(578,111,o),
(578,338,cs),
(578,581,o),
(478,716,o),
(299,716,cs),
(122,716,o),
(23,628,o),
(23,470,cs),
(23,322,o),
(122,240,o),
(299,240,cs),
(396,240,o),
(463,326,o),
(486,482,c),
(446,482,l),
(427,400,o),
(374,355,o),
(299,355,cs),
(231,355,o),
(193,396,o),
(193,470,cs),
(193,554,o),
(231,601,o),
(299,601,cs),
(369,601,o),
(408,507,o),
(408,338,cs),
(408,185,o),
(362,100,o),
(279,100,cs),
(199,100,o),
(135,120,o),
(101,155,c),
(57,56,l),
(106,10,o),
(185,-15,o),
(279,-15,cs)
);
}
);
width = 600;
}
);
unicode = 57;
},
{
glyphname = period;
lastChange = "2023-11-05 21:00:06 +0000";
layers = (
{
layerId = m01;
shapes = (
{
closed = 1;
nodes = (
(133,-8,o),
(161,20,o),
(161,54,cs),
(161,87,o),
(133,115,o),
(100,115,cs),
(66,115,o),
(38,87,o),
(38,54,cs),
(38,20,o),
(66,-8,o),
(100,-8,cs)
);
}
);
width = 200;
},
{
layerId = m002;
shapes = (
{
closed = 1;
nodes = (
(187,-9,o),
(226,31,o),
(226,87,cs),
(226,143,o),
(187,182,o),
(131,182,cs),
(75,182,o),
(35,143,o),
(35,87,cs),
(35,31,o),
(75,-9,o),
(131,-9,cs)
);
}
);
width = 261;
}
);
unicode = 46;
},
{
glyphname = comma;
lastChange = "2023-11-05 21:00:06 +0000";
layers = (
{
layerId = m01;
shapes = (
{
closed = 1;
nodes = (
(187,85,l),
(98,110,l),
(40,-153,l),
(90,-169,l)
);
}
);
width = 240;
},
{
layerId = m002;
shapes = (
{
closed = 1;
nodes = (
(222,135,l),
(83,170,l),
(25,-143,l),
(125,-169,l)
);
}
);
width = 261;
}
);
unicode = 44;
},
{
glyphname = colon;
lastChange = "2023-11-05 21:00:06 +0000";
layers = (
{
layerId = m01;
shapes = (
{
closed = 1;
nodes = (
(203,436,o),
(231,464,o),
(231,498,cs),
(231,531,o),
(203,559,o),
(170,559,cs),
(136,559,o),
(108,531,o),
(108,498,cs),
(108,464,o),
(136,436,o),
(170,436,cs)
);
},
{
closed = 1;
nodes = (
(203,-8,o),
(231,20,o),
(231,54,cs),
(231,87,o),
(203,115,o),
(170,115,cs),
(136,115,o),
(108,87,o),
(108,54,cs),
(108,20,o),
(136,-8,o),
(170,-8,cs)
);
}
);
width = 320;
},
{
layerId = m002;
shapes = (
{
closed = 1;
nodes = (
(207,366,o),
(246,406,o),
(246,462,cs),
(246,518,o),
(207,557,o),
(151,557,cs),
(95,557,o),
(55,518,o),
(55,462,cs),
(55,406,o),
(95,366,o),
(151,366,cs)
);
},
{
closed = 1;
nodes = (
(207,-9,o),
(246,31,o),
(246,87,cs),
(246,143,o),
(207,182,o),
(151,182,cs),
(95,182,o),
(55,143,o),
(55,87,cs),
(55,31,o),
(95,-9,o),
(151,-9,cs)
);
}
);
width = 301;
}
);
unicode = 58;
},
{
glyphname = semicolon;
lastChange = "2023-11-05 21:00:06 +0000";
layers = (
{
layerId = m01;
shapes = (
{
closed = 1;
nodes = (
(217,85,l),
(128,110,l),
(90,-153,l),
(120,-169,l)
);
},
{
closed = 1;
nodes = (
(193,436,o),
(221,464,o),
(221,498,cs),
(221,531,o),
(193,559,o),
(160,559,cs),
(126,559,o),
(98,531,o),
(98,498,cs),
(98,464,o),
(126,436,o),
(160,436,cs)
);
}
);
width = 320;
},
{
layerId = m002;
shapes = (
{
closed = 1;
nodes = (
(222,135,l),
(83,170,l),
(25,-143,l),
(125,-169,l)
);
},
{
closed = 1;
nodes = (
(207,366,o),
(246,406,o),
(246,462,cs),
(246,518,o),
(207,557,o),
(151,557,cs),
(95,557,o),
(55,518,o),
(55,462,cs),
(55,406,o),
(95,366,o),
(151,366,cs)
);
}
);
width = 301;
}
);
unicode = 59;
},
{
glyphname = ellipsis;
lastChange = "2023-11-05 21:00:06 +0000";
layers = (
{
layerId = m01;
shapes = (
{
closed = 1;
nodes = (
(571,-8,o),
(599,20,o),
(599,54,cs),
(599,87,o),
(571,115,o),
(538,115,cs),
(504,115,o),
(476,87,o),
(476,54,cs),
(476,20,o),
(504,-8,o),
(538,-8,cs)
);
},
{
closed = 1;
nodes = (
(95,-8,o),
(123,20,o),
(123,54,cs),
(123,87,o),
(95,115,o),
(62,115,cs),
(28,115,o),
(0,87,o),
(0,54,cs),
(0,20,o),
(28,-8,o),
(62,-8,cs)
);
},
{
closed = 1;
nodes = (
(333,-8,o),
(361,20,o),
(361,54,cs),
(361,87,o),
(333,115,o),
(300,115,cs),
(266,115,o),
(238,87,o),
(238,54,cs),
(238,20,o),
(266,-8,o),
(300,-8,cs)
);
}
);
width = 600;
},
{
layerId = m002;
shapes = (
{
closed = 1;
nodes = (
(571,-8,o),
(599,20,o),
(599,54,cs),
(599,87,o),
(571,115,o),
(538,115,cs),
(504,115,o),
(476,87,o),
(476,54,cs),
(476,20,o),
(504,-8,o),
(538,-8,cs)
);
},
{
closed = 1;
nodes = (
(95,-8,o),
(123,20,o),
(123,54,cs),
(123,87,o),
(95,115,o),
(62,115,cs),
(28,115,o),
(0,87,o),
(0,54,cs),
(0,20,o),
(28,-8,o),
(62,-8,cs)
);
},
{
closed = 1;
nodes = (
(333,-8,o),
(361,20,o),
(361,54,cs),
(361,87,o),
(333,115,o),
(300,115,cs),
(266,115,o),
(238,87,o),
(238,54,cs),
(238,20,o),
(266,-8,o),
(300,-8,cs)
);
}
);
width = 600;
}
);
unicode = 8230;
},
{
glyphname = exclam;
lastChange = "2023-11-05 21:00:06 +0000";
layers = (
{
layerId = m01;
shapes = (
{
closed = 1;
nodes = (
(223,200,l),
(243,700,l),
(153,700,l),
(173,200,l)
);
},
{
closed = 1;
nodes = (
(233,-8,o),
(261,20,o),
(261,54,cs),
(261,87,o),
(233,115,o),
(200,115,cs),
(166,115,o),
(138,87,o),
(138,54,cs),
(138,20,o),
(166,-8,o),
(200,-8,cs)
);
}
);
width = 400;
},
{
layerId = m002;
shapes = (
{
closed = 1;
nodes = (
(273,290,l),
(293,700,l),
(103,700,l),
(123,290,l)
);
},
{
closed = 1;
nodes = (
(257,-9,o),
(296,31,o),
(296,87,cs),
(296,143,o),
(257,182,o),
(201,182,cs),
(145,182,o),
(105,143,o),
(105,87,cs),
(105,31,o),
(145,-9,o),
(201,-9,cs)
);
}
);
width = 400;
}
);
unicode = 33;
},
{
glyphname = question;
lastChange = "2023-11-05 21:00:06 +0000";
layers = (
{
layerId = m01;
shapes = (
{
closed = 1;
nodes = (
(212,205,l),
(197,364,o),
(400,340,o),
(400,523,cs),
(400,635,o),
(311,715,o),
(185,715,cs),
(141,715,o),
(85,696,o),
(50,668,c),
(72,625,l),
(97,640,o),
(144,650,o),
(185,650,cs),
(270,650,o),
(330,597,o),
(330,523,cs),
(330,388,o),
(117,404,o),
(142,205,c)
);
},
{
closed = 1;
nodes = (
(216,-8,o),
(241,18,o),
(241,54,cs),
(241,90,o),
(216,115,o),
(180,115,cs),
(144,115,o),
(118,90,o),
(118,54,cs),
(118,18,o),
(144,-8,o),
(180,-8,cs)
);
}
);
width = 400;
},
{
layerId = m002;
shapes = (
{
closed = 1;
nodes = (
(287,255,l),
(272,414,o),
(445,340,o),
(445,523,cs),
(445,646,o),
(379,715,o),
(260,715,cs),
(147,715,o),
(63,698,o),
(25,668,c),
(47,575,l),
(74,591,o),
(132,600,o),
(210,600,cs),
(252,600,o),
(275,572,o),
(275,523,cs),
(275,388,o),
(92,454,o),
(117,255,c)
);
},
{
closed = 1;
nodes = (
(262,-9,o),
(301,31,o),
(301,87,cs),
(301,143,o),
(262,182,o),
(206,182,cs),
(150,182,o),
(110,143,o),
(110,87,cs),
(110,31,o),
(150,-9,o),
(206,-9,cs)
);
}
);
width = 470;
}
);
unicode = 63;
},
{
glyphname = periodcentered;
lastChange = "2023-11-05 21:00:06 +0000";
layers = (
{
layerId = m01;
shapes = (
{
closed = 1;
nodes = (
(244,215,o),
(278,249,o),
(278,290,cs),
(278,330,o),
(244,364,o),
(204,364,cs),
(163,364,o),
(129,330,o),
(129,290,cs),
(129,249,o),
(163,215,o),
(204,215,cs)
);
}
);
width = 400;
},
{
layerId = m002;
shapes = (
{
closed = 1;
nodes = (
(244,215,o),
(278,249,o),
(278,290,cs),
(278,330,o),
(244,364,o),
(204,364,cs),
(163,364,o),
(129,330,o),
(129,290,cs),
(129,249,o),
(163,215,o),
(204,215,cs)
);
}
);
width = 400;
}
);
unicode = 183;
},
{
glyphname = bullet;
lastChange = "2023-11-05 21:00:06 +0000";
layers = (
{
layerId = m01;
shapes = (
{
closed = 1;
nodes = (
(377,161,o),
(437,221,o),
(437,294,cs),
(437,364,o),
(377,425,o),
(306,425,cs),
(233,425,o),
(173,364,o),
(173,294,cs),
(173,221,o),
(233,161,o),
(306,161,cs)
);
}
);
width = 600;
},
{
layerId = m002;
shapes = (
{
closed = 1;
nodes = (
(377,161,o),
(437,221,o),
(437,294,cs),
(437,364,o),
(377,425,o),
(306,425,cs),
(233,425,o),
(173,364,o),
(173,294,cs),
(173,221,o),
(233,161,o),
(306,161,cs)
);
}
);
width = 600;
}
);
unicode = 8226;
},
{
glyphname = asterisk;
lastChange = "2023-11-05 21:00:06 +0000";
layers = (
{
layerId = m01;
shapes = (
{
closed = 1;
nodes = (
(368,583,l),
(334,642,l),
(194,540,l),
(208,515,l)
);
},
{
closed = 1;
nodes = (
(206,511,l),
(192,536,l),
(32,468,l),
(66,409,l)
);
},
{
closed = 1;
nodes = (
(234,351,l),
(214,526,l),
(186,526,l),
(166,351,l)
);
},
{
closed = 1;
nodes = (
(206,540,l),
(66,642,l),
(32,583,l),
(192,516,l)
);
},
{
closed = 1;
nodes = (
(368,468,l),
(208,535,l),
(194,511,l),
(334,409,l)
);
},
{
closed = 1;
nodes = (
(214,525,l),
(234,700,l),
(166,700,l),
(186,525,l)
);
}
);
width = 400;
},
{
layerId = m002;
shapes = (
{
closed = 1;
nodes = (
(389,576,l),
(339,664,l),
(174,544,l),
(201,496,l)
);
},
{
closed = 1;
nodes = (
(226,507,l),
(199,555,l),
(11,475,l),
(61,387,l)
);
},
{
closed = 1;
nodes = (
(251,336,l),
(227,541,l),
(173,541,l),
(149,336,l)
);
},
{
closed = 1;
nodes = (
(226,544,l),
(61,664,l),
(11,576,l),
(198,497,l)
);
},
{
closed = 1;
nodes = (
(389,475,l),
(202,554,l),
(174,507,l),
(339,387,l)
);
},
{
closed = 1;
nodes = (
(227,510,l),
(251,715,l),
(149,715,l),
(173,510,l)
);
}
);
width = 400;
}
);
unicode = 42;
},
{
glyphname = numbersign;
lastChange = "2023-11-05 21:00:06 +0000";
layers = (
{
layerId = m01;
shapes = (
{
closed = 1;
nodes = (
(418,0,l),
(492,700,l),
(447,700,l),
(373,0,l)
);
},
{
closed = 1;
nodes = (
(525,178,l),
(531,223,l),
(45,223,l),
(39,178,l)
);
},
{
closed = 1;
nodes = (
(148,0,l),
(222,700,l),
(177,700,l),
(103,0,l)
);
},
{
closed = 1;
nodes = (
(555,458,l),
(561,503,l),
(75,503,l),
(69,458,l)
);
}
);
width = 600;
},
{
layerId = m002;
shapes = (
{
closed = 1;
nodes = (
(418,0,l),
(492,700,l),
(447,700,l),
(373,0,l)
);
},
{
closed = 1;
nodes = (
(525,178,l),
(531,223,l),
(45,223,l),
(39,178,l)
);
},
{
closed = 1;
nodes = (
(148,0,l),
(222,700,l),
(177,700,l),
(103,0,l)
);
},
{
closed = 1;
nodes = (
(555,458,l),
(561,503,l),
(75,503,l),
(69,458,l)
);
}
);
width = 600;
}
);
unicode = 35;
},
{
glyphname = slash;
lastChange = "2023-11-05 21:00:06 +0000";
layers = (
{
layerId = m01;
shapes = (
{
closed = 1;
nodes = (
(198,-166,l),
(472,700,l),
(409,700,l),
(135,-166,l)
);
}
);
width = 600;
},
{
layerId = m002;
shapes = (
{
closed = 1;
nodes = (
(248,-166,l),
(522,700,l),
(359,700,l),
(85,-166,l)
);
}
);
width = 600;
}
);
unicode = 47;
},
{
glyphname = backslash;
lastChange = "2023-11-05 21:00:06 +0000";
layers = (
{
layerId = m01;
shapes = (
{
closed = 1;
nodes = (
(470,-166,l),
(196,700,l),
(133,700,l),
(407,-166,l)
);
}
);
width = 600;
},
{
layerId = m002;
shapes = (
{
closed = 1;
nodes = (
(470,-166,l),
(196,700,l),
(133,700,l),
(407,-166,l)
);
}
);
width = 600;
}
);
unicode = 92;
},
{
glyphname = hyphen;
lastChange = "2023-11-05 21:00:06 +0000";
layers = (
{
layerId = m01;
shapes = (
{
closed = 1;
nodes = (
(354,320,l),
(354,400,l),
(34,400,l),
(34,320,l)
);
}
);
width = 400;
},
{
layerId = m002;
shapes = (
{
closed = 1;
nodes = (
(354,270,l),
(354,450,l),
(34,450,l),
(34,270,l)
);
}
);
width = 400;
}
);
unicode = 45;
},
{
glyphname = endash;
lastChange = "2023-11-05 21:00:06 +0000";
layers = (
{
layerId = m01;
shapes = (
{
closed = 1;
nodes = (
(564,250,l),
(564,330,l),
(36,330,l),
(36,250,l)
);
}
);
width = 600;
},
{
layerId = m002;
shapes = (
{
closed = 1;
nodes = (
(564,250,l),
(564,330,l),
(36,330,l),
(36,250,l)
);
}
);
width = 600;
}
);
unicode = 8211;
},
{
glyphname = emdash;
lastChange = "2023-11-05 21:00:06 +0000";
layers = (
{
layerId = m01;
shapes = (
{
closed = 1;
nodes = (
(528,250,l),
(528,330,l),
(0,330,l),
(0,250,l)
);
}
);
width = 600;
},
{
layerId = m002;
shapes = (
{
closed = 1;
nodes = (
(528,250,l),
(528,330,l),
(0,330,l),
(0,250,l)
);
}
);
width = 600;
}
);
unicode = 8212;
},
{
glyphname = underscore;
lastChange = "2023-11-05 21:00:06 +0000";
layers = (
{
layerId = m01;
shapes = (
{
closed = 1;
nodes = (
(600,-125,l),
(600,-75,l),
(0,-75,l),
(0,-125,l)
);
}
);
width = 600;
},
{
layerId = m002;
shapes = (
{
closed = 1;
nodes = (
(600,-125,l),
(600,-75,l),
(0,-75,l),
(0,-125,l)
);
}
);
width = 600;
}
);
unicode = 95;
},
{
glyphname = parenleft;
lastChange = "2023-11-05 21:00:06 +0000";
layers = (
{
layerId = m01;
shapes = (
{
closed = 1;
nodes = (
(309,-150,l),
(171,126,o),
(171,514,o),
(309,790,c),
(249,790,l),
(92,475,o),
(92,165,o),
(249,-150,c)
);
}
);
width = 400;
},
{
layerId = m002;
shapes = (
{
closed = 1;
nodes = (
(349,-150,l),
(211,126,o),
(211,514,o),
(349,790,c),
(199,790,l),
(42,475,o),
(42,165,o),
(199,-150,c)
);
}
);
width = 400;
}
);
unicode = 40;
},
{
glyphname = braceleft;
lastChange = "2023-11-05 21:00:06 +0000";
layers = (
{
layerId = m01;
shapes = (
{
closed = 1;
nodes = (
(280,299,o),
(338,341,o),
(338,416,cs),
(338,673,ls),
(338,710,o),
(370,731,o),
(425,731,c),
(425,781,l),
(331,781,o),
(278,742,o),
(278,673,cs),
(278,416,ls),
(278,360,o),
(241,329,o),
(175,329,c),
(175,299,l)
);
},
{
closed = 1;
nodes = (
(425,-103,l),
(370,-103,o),
(338,-82,o),
(338,-45,cs),
(338,212,ls),
(338,287,o),
(280,329,o),
(175,329,c),
(175,299,l),
(241,299,o),
(278,268,o),
(278,212,cs),
(278,-45,ls),
(278,-114,o),
(331,-153,o),
(425,-153,c)
);
}
);
width = 600;
},
{
layerId = m002;
shapes = (
{
closed = 1;
nodes = (
(280,299,o),
(338,341,o),
(338,416,cs),
(338,673,ls),
(338,710,o),
(370,731,o),
(425,731,c),
(425,781,l),
(331,781,o),
(278,742,o),
(278,673,cs),
(278,416,ls),
(278,360,o),
(241,329,o),
(175,329,c),
(175,299,l)
);
},
{
closed = 1;
nodes = (
(425,-103,l),
(370,-103,o),
(338,-82,o),
(338,-45,cs),
(338,212,ls),
(338,287,o),
(280,329,o),
(175,329,c),
(175,299,l),
(241,299,o),
(278,268,o),
(278,212,cs),
(278,-45,ls),
(278,-114,o),
(331,-153,o),
(425,-153,c)
);
}
);
width = 600;
}
);
unicode = 123;
},
{
glyphname = bracketleft;
lastChange = "2023-11-05 21:00:06 +0000";
layers = (
{
layerId = m01;
shapes = (
{
closed = 1;
nodes = (
(440,-152,l),
(440,-92,l),
(300,-92,l),
(300,710,l),
(440,710,l),
(440,770,l),
(240,770,l),
(240,-152,l)
);
}
);
width = 600;
},
{
layerId = m002;
shapes = (
{
closed = 1;
nodes = (
(440,-152,l),
(440,-92,l),
(300,-92,l),
(300,710,l),
(440,710,l),
(440,770,l),
(240,770,l),
(240,-152,l)
);
}
);
width = 600;
}
);
unicode = 91;
},
{
glyphname = quotesinglbase;
lastChange = "2023-11-05 21:00:06 +0000";
layers = (
{
layerId = m01;
shapes = (
{
closed = 1;
nodes = (
(277,85,l),
(188,110,l),
(130,-153,l),
(180,-169,l)
);
}
);
width = 400;
},
{
layerId = m002;
shapes = (
{
closed = 1;
nodes = (
(277,85,l),
(188,110,l),
(130,-153,l),
(180,-169,l)
);
}
);
width = 400;
}
);
unicode = 8218;
},
{
glyphname = quotedblbase;
lastChange = "2023-11-05 21:00:06 +0000";
layers = (
{
layerId = m01;
shapes = (
{
closed = 1;
nodes = (
(373,85,l),
(284,110,l),
(226,-153,l),
(276,-169,l)
);
},
{
closed = 1;
nodes = (
(176,85,l),
(87,110,l),
(29,-153,l),
(79,-169,l)
);
}
);
width = 400;
},
{
layerId = m002;
shapes = (
{
closed = 1;
nodes = (
(373,85,l),
(284,110,l),
(226,-153,l),
(276,-169,l)
);
},
{
closed = 1;
nodes = (
(176,85,l),
(87,110,l),
(29,-153,l),
(79,-169,l)
);
}
);
width = 400;
}
);
unicode = 8222;
},
{
glyphname = quotedblleft;
lastChange = "2023-11-05 21:00:06 +0000";
layers = (
{
layerId = m01;
shapes = (
{
closed = 1;
nodes = (
(368,705,l),
(318,721,l),
(221,467,l),
(310,442,l)
);
},
{
closed = 1;
nodes = (
(182,705,l),
(132,721,l),
(35,467,l),
(124,442,l)
);
}
);
width = 400;
},
{
layerId = m002;
shapes = (
{
closed = 1;
nodes = (
(368,705,l),
(318,721,l),
(221,467,l),
(310,442,l)
);
},
{
closed = 1;
nodes = (
(182,705,l),
(132,721,l),
(35,467,l),
(124,442,l)
);
}
);
width = 400;
}
);
unicode = 8220;
},
{
glyphname = quotedblright;
lastChange = "2023-11-05 21:00:06 +0000";
layers = (
{
layerId = m01;
shapes = (
{
closed = 1;
nodes = (
(377,703,l),
(288,728,l),
(230,465,l),
(280,449,l)
);
},
{
closed = 1;
nodes = (
(180,703,l),
(91,728,l),
(33,465,l),
(83,449,l)
);
}
);
width = 400;
},
{
layerId = m002;
shapes = (
{
closed = 1;
nodes = (
(377,703,l),
(288,728,l),
(230,465,l),
(280,449,l)
);
},
{
closed = 1;
nodes = (
(180,703,l),
(91,728,l),
(33,465,l),
(83,449,l)
);
}
);
width = 400;
}
);
unicode = 8221;
},
{
glyphname = quoteleft;
lastChange = "2023-11-05 21:00:06 +0000";
layers = (
{
layerId = m01;
shapes = (
{
closed = 1;
nodes = (
(227,705,l),
(177,721,l),
(80,467,l),
(169,442,l)
);
}
);
width = 300;
},
{
layerId = m002;
shapes = (
{
closed = 1;
nodes = (
(227,705,l),
(177,721,l),
(80,467,l),
(169,442,l)
);
}
);
width = 300;
}
);
unicode = 8216;
},
{
glyphname = quoteright;
lastChange = "2023-11-05 21:00:06 +0000";
layers = (
{
layerId = m01;
shapes = (
{
closed = 1;
nodes = (
(240,703,l),
(151,728,l),
(93,465,l),
(143,449,l)
);
}
);
width = 300;
},
{
layerId = m002;
shapes = (
{
closed = 1;
nodes = (
(240,703,l),
(151,728,l),
(93,465,l),
(143,449,l)
);
}
);
width = 300;
}
);
unicode = 8217;
},
{
glyphname = guilsinglleft;
lastChange = "2023-11-05 21:00:06 +0000";
layers = (
{
layerId = m01;
shapes = (
{
closed = 1;
nodes = (
(321,89,l),
(286,154,o),
(241,218,o),
(186,283,c),
(241,348,o),
(286,412,o),
(321,477,c),
(290,503,l),
(209,430,o),
(139,356,o),
(78,283,c),
(139,210,o),
(209,136,o),
(290,63,c)
);
}
);
width = 400;
},
{
layerId = m002;
shapes = (
{
closed = 1;
nodes = (
(321,89,l),
(286,154,o),
(241,218,o),
(186,283,c),
(241,348,o),
(286,412,o),
(321,477,c),
(290,503,l),
(209,430,o),
(139,356,o),
(78,283,c),
(139,210,o),
(209,136,o),
(290,63,c)
);
}
);
width = 400;
}
);
unicode = 8249;
},
{
glyphname = quotesingle;
lastChange = "2023-11-05 21:00:06 +0000";
layers = (
{
layerId = m01;
shapes = (
{
closed = 1;
nodes = (
(225,460,l),
(245,700,l),
(155,700,l),
(175,460,l)
);
}
);
width = 400;
},
{
layerId = m002;
shapes = (
{
closed = 1;
nodes = (
(225,460,l),
(245,700,l),
(155,700,l),
(175,460,l)
);
}
);
width = 400;
}
);
unicode = 39;
},
{
glyphname = dieresiscomb;
lastChange = "2023-11-05 21:00:06 +0000";
layers = (
{
layerId = m01;
shapes = (
{
closed = 1;
nodes = (
(351,643,o),
(376,668,o),
(376,699,cs),
(376,729,o),
(351,754,o),
(321,754,cs),
(290,754,o),
(265,729,o),
(265,699,cs),
(265,668,o),
(290,643,o),
(321,643,cs)
);
},
{
closed = 1;
nodes = (
(165,643,o),
(190,668,o),
(190,699,cs),
(190,729,o),
(165,754,o),
(135,754,cs),
(104,754,o),
(79,729,o),
(79,699,cs),
(79,668,o),
(104,643,o),
(135,643,cs)
);
}
);
width = 600;
},
{
layerId = m002;
shapes = (
{
closed = 1;
nodes = (
(351,643,o),
(376,668,o),
(376,699,cs),
(376,729,o),
(351,754,o),
(321,754,cs),
(290,754,o),
(265,729,o),
(265,699,cs),
(265,668,o),
(290,643,o),
(321,643,cs)
);
},
{
closed = 1;
nodes = (
(165,643,o),
(190,668,o),
(190,699,cs),
(190,729,o),
(165,754,o),
(135,754,cs),
(104,754,o),
(79,729,o),
(79,699,cs),
(79,668,o),
(104,643,o),
(135,643,cs)
);
}
);
width = 600;
}
);
unicode = 776;
},
{
glyphname = dotaccentcomb;
lastChange = "2023-11-05 21:00:06 +0000";
layers = (
{
layerId = m01;
shapes = (
{
closed = 1;
nodes = (
(330,643,o),
(355,668,o),
(355,699,cs),
(355,729,o),
(330,754,o),
(300,754,cs),
(269,754,o),
(244,729,o),
(244,699,cs),
(244,668,o),
(269,643,o),
(300,643,cs)
);
}
);
width = 600;
},
{
layerId = m002;
shapes = (
{
closed = 1;
nodes = (
(330,643,o),
(355,668,o),
(355,699,cs),
(355,729,o),
(330,754,o),
(300,754,cs),
(269,754,o),
(244,729,o),
(244,699,cs),
(244,668,o),
(269,643,o),
(300,643,cs)
);
}
);
width = 600;
}
);
unicode = 775;
},
{
glyphname = gravecomb;
lastChange = "2023-11-05 21:00:07 +0000";
layers = (
{
layerId = m01;
shapes = (
{
closed = 1;
nodes = (
(369,637,l),
(270,764,l),
(213,701,l),
(348,614,l)
);
},
{
closed = 1;
nodes = (
(237,687,o),
(263,692,o),
(275,713,cs),
(287,731,o),
(280,758,o),
(262,771,c),
(242,782,o),
(217,777,o),
(204,757,cs),
(191,738,o),
(197,711,o),
(217,699,cs)
);
}
);
width = 600;
},
{
layerId = m002;
shapes = (
{
closed = 1;
nodes = (
(369,637,l),
(270,764,l),
(213,701,l),
(348,614,l)
);
},
{
closed = 1;
nodes = (
(237,687,o),
(263,692,o),
(275,713,cs),
(287,731,o),
(280,758,o),
(262,771,c),
(242,782,o),
(217,777,o),
(204,757,cs),
(191,738,o),
(197,711,o),
(217,699,cs)
);
}
);
width = 600;
}
);
unicode = 768;
},
{
glyphname = acutecomb;
lastChange = "2023-11-05 21:00:07 +0000";
layers = (
{
layerId = m01;
shapes = (
{
closed = 1;
nodes = (
(383,700,l),
(385,701,l),
(402,714,o),
(407,739,o),
(394,757,cs),
(381,777,o),
(355,782,o),
(336,771,cs),
(331,768,o),
(327,764,o),
(324,759,c),
(230,636,l),
(251,613,l)
);
}
);
width = 600;
},
{
layerId = m002;
shapes = (
{
closed = 1;
nodes = (
(383,700,l),
(385,701,l),
(402,714,o),
(407,739,o),
(394,757,cs),
(381,777,o),
(355,782,o),
(336,771,cs),
(331,768,o),
(327,764,o),
(324,759,c),
(230,636,l),
(251,613,l)
);
}
);
width = 600;
}
);
unicode = 769;
},
{
glyphname = circumflexcomb;
lastChange = "2023-11-05 21:00:06 +0000";
layers = (
{
layerId = m01;
shapes = (
{
closed = 1;
nodes = (
(300,713,l),
(435,656,l),
(450,674,l),
(337,775,l),
(300,795,l),
(263,775,l),
(150,674,l),
(165,656,l)
);
}
);
width = 600;
},
{
layerId = m002;
shapes = (
{
closed = 1;
nodes = (
(300,713,l),
(435,656,l),
(450,674,l),
(337,775,l),
(300,795,l),
(263,775,l),
(150,674,l),
(165,656,l)
);
}
);
width = 600;
}
);
unicode = 770;
},
{
glyphname = ringcomb;
lastChange = "2023-11-05 21:00:06 +0000";
layers = (
{
layerId = m01;
shapes = (
{
closed = 1;
nodes = (
(359,597,o),
(400,643,o),
(400,708,cs),
(400,767,o),
(359,808,o),
(300,808,cs),
(241,808,o),
(199,767,o),
(199,708,cs),
(199,643,o),
(241,597,o),
(300,597,cs)
);
},
{
closed = 1;
nodes = (
(264,636,o),
(238,666,o),
(238,708,cs),
(238,744,o),
(264,769,o),
(300,769,cs),
(336,769,o),
(361,744,o),
(361,708,cs),
(361,666,o),
(336,636,o),
(300,636,cs)
);
}
);
width = 600;
},
{
layerId = m002;
shapes = (
{
closed = 1;
nodes = (
(359,597,o),
(400,643,o),
(400,708,cs),
(400,767,o),
(359,808,o),
(300,808,cs),
(241,808,o),
(199,767,o),
(199,708,cs),
(199,643,o),
(241,597,o),
(300,597,cs)
);
},
{
closed = 1;
nodes = (
(264,636,o),
(238,666,o),
(238,708,cs),
(238,744,o),
(264,769,o),
(300,769,cs),
(336,769,o),
(361,744,o),
(361,708,cs),
(361,666,o),
(336,636,o),
(300,636,cs)
);
}
);
width = 600;
}
);
unicode = 778;
},
{
glyphname = tildecomb;
lastChange = "2023-11-05 21:00:06 +0000";
layers = (
{
layerId = m01;
shapes = (
{
closed = 1;
nodes = (
(194,641,o),
(215,663,o),
(238,668,cs),
(269,672,o),
(290,653,o),
(315,637,cs),
(335,625,o),
(357,613,o),
(389,619,cs),
(430,626,o),
(467,667,o),
(480,696,c),
(435,732,l),
(423,710,o),
(402,688,o),
(379,683,cs),
(348,679,o),
(327,697,o),
(302,713,cs),
(282,726,o),
(260,737,o),
(228,732,cs),
(187,725,o),
(150,684,o),
(137,654,c),
(182,618,l)
);
}
);
width = 600;
},
{
layerId = m002;
shapes = (
{
closed = 1;
nodes = (
(194,641,o),
(215,663,o),
(238,668,cs),
(269,672,o),
(290,653,o),
(315,637,cs),
(335,625,o),
(357,613,o),
(389,619,cs),
(430,626,o),
(467,667,o),
(480,696,c),
(435,732,l),
(423,710,o),
(402,688,o),
(379,683,cs),
(348,679,o),
(327,697,o),
(302,713,cs),
(282,726,o),
(260,737,o),
(228,732,cs),
(187,725,o),
(150,684,o),
(137,654,c),
(182,618,l)
);
}
);
width = 600;
}
);
unicode = 771;
},
{
glyphname = cedillacomb;
lastChange = "2023-11-05 21:00:06 +0000";
layers = (
{
layerId = m01;
shapes = (
{
closed = 1;
nodes = (
(402,-227,o),
(450,-193,o),
(450,-144,cs),
(450,-96,o),
(407,-62,o),
(346,-62,c),
(373,7,l),
(322,6,l),
(286,-104,l),
(288,-104,ls),
(351,-104,o),
(396,-122,o),
(396,-147,cs),
(396,-170,o),
(370,-186,o),
(333,-186,cs),
(307,-186,o),
(279,-183,o),
(267,-178,c),
(255,-207,l),
(279,-219,o),
(312,-227,o),
(333,-227,cs)
);
}
